<?xml version="1.0" encoding="UTF-8"?><svg id="Layer_2" xmlns="http://www.w3.org/2000/svg" viewBox="0 0 36 36"><g id="Layer_2-2"><g><path d="M28.07,0s0,0,0,0H7.93C3.56,0,0,3.56,0,7.93V28.07H0c0,4.37,3.56,7.92,7.93,7.93H28.08c4.36,0,7.92-3.56,7.92-7.93V7.93C36,3.56,32.44,0,28.07,0Zm6.93,28.07c0,3.83-3.1,6.92-6.93,6.93H7.93c-3.83,0-6.92-3.1-6.93-6.93V7.93c0-3.83,3.1-6.92,6.93-6.93H28.07c3.83,0,6.92,3.1,6.93,6.93V28.07Z" style="fill:#e1ddfb;"/><path d="M21.6,25.17c-2.26,1.14-4.93,1.14-7.2,0-2.26-1.14-3.85-3.29-4.29-5.78H3.77v8.69c0,2.3,1.86,4.16,4.16,4.16H28.07c2.3,0,4.16-1.86,4.16-4.16v-8.69h-6.34c-.43,2.5-2.02,4.64-4.29,5.78Z" style="fill:#e1ddfb;"/><path d="M20.01,22.85c1.96-.81,3.24-2.73,3.24-4.85h0c0-2.9-2.35-5.25-5.25-5.25-2.12,0-4.04,1.28-4.85,3.24-.81,1.96-.36,4.22,1.14,5.72,1.5,1.5,3.76,1.95,5.72,1.14Z" style="fill:#e1ddfb;"/><path d="M28.07,3.77H7.93c-2.3,0-4.16,1.86-4.16,4.16v8.69h6.34c.43-2.5,2.02-4.64,4.29-5.78,2.26-1.14,4.93-1.14,7.2,0,2.27,1.14,3.85,3.29,4.29,5.78h6.34V7.93c0-2.3-1.86-4.16-4.16-4.16Zm-.05,5.05h-1.83c-.37,0-.72-.15-.98-.41-.26-.26-.4-.61-.4-.98s.15-.72,.4-.98c.26-.26,.61-.4,.98-.4h1.83c.76,0,1.39,.62,1.39,1.39s-.62,1.39-1.39,1.39Z" style="fill:#e1ddfb;"/></g></g></svg>