<svg width="150" height="150" viewBox="0 0 150 150" fill="none" xmlns="http://www.w3.org/2000/svg">
<path fill-rule="evenodd" clip-rule="evenodd" d="M73.5346 2.75783L72.2829 10.3799L72.2625 10.3698L71.9471 10.4003L69.1282 3.17506L67.1438 3.36841L65.7598 11.0007L65.4342 11.0312L62.7069 3.79582L61.1805 3.94846L64.4776 12.2219L66.869 11.9878L68.1411 5.03734L68.4566 5.00681L71.0007 11.5909L73.443 11.3569L75.0509 2.61536L73.5346 2.75783ZM50.9634 15.1018C50.0577 14.6337 49.3555 13.6669 48.8467 12.2117C48.5312 11.2958 48.46 10.4715 48.6126 9.71849C48.7653 8.96543 49.1011 8.34467 49.5997 7.83585C50.0984 7.32703 50.6886 6.96068 51.3806 6.71645C52.7341 6.24834 53.8535 6.25851 54.7592 6.71645C55.6547 7.18457 56.367 8.1615 56.8657 9.6269C57.1811 10.5428 57.2727 11.3772 57.1404 12.1099C57.0082 12.8426 56.7029 13.4532 56.2042 13.9519C55.7056 14.4505 55.0746 14.8372 54.3012 15.1018C52.9783 15.5597 51.8589 15.5496 50.9532 15.0814L50.9634 15.1018ZM55.1764 13.1581C55.4919 12.8732 55.6852 12.4865 55.7565 11.9878C55.8277 11.4994 55.7361 10.8684 55.4715 10.1255C55.2171 9.39284 54.9016 8.85349 54.5048 8.47697C54.1079 8.11062 53.6805 7.89691 53.2225 7.83585C52.7646 7.7748 52.2863 7.83585 51.7877 7.99868C51.2585 8.18185 50.8413 8.41591 50.536 8.70085C50.2205 8.98579 50.0373 9.38267 49.9661 9.87113C49.8948 10.3596 49.9864 10.9804 50.251 11.7232C50.6174 12.8019 51.1262 13.4939 51.7775 13.7992C52.4288 14.1045 53.1411 14.1249 53.9247 13.8501C54.4437 13.6669 54.8711 13.4329 55.1764 13.1479V13.1581ZM39.4279 17.2564L39.4234 17.2592V17.249L39.4279 17.2564ZM40.0645 18.2972L39.4279 17.2564L43.0461 15.0306L45.2951 18.6941L44.2062 19.3657L43.4837 17.5441L43.0258 17.6866C43.1377 18.2361 43.1479 18.7246 43.0665 19.1418C42.9851 19.5591 42.8121 19.9356 42.5373 20.2816C42.2626 20.6174 41.886 20.9431 41.3976 21.2382C40.7361 21.6452 40.0848 21.8589 39.4234 21.8895C38.7619 21.92 38.1309 21.7368 37.5102 21.3298C36.8894 20.9329 36.3195 20.3121 35.8006 19.4675C35.2917 18.633 35.0271 17.8393 35.0068 17.076C34.9864 16.3128 35.1798 15.6106 35.5767 14.9899C35.9735 14.3691 36.5333 13.8298 37.2558 13.382C37.8358 13.0258 38.4057 12.7816 38.9654 12.6289C39.5251 12.4865 40.0441 12.4865 40.5224 12.6188C41.0007 12.7511 41.3874 13.0462 41.7029 13.5041C41.713 13.5143 41.7334 13.5448 41.7537 13.5855C41.7537 13.5991 41.7718 13.6307 41.802 13.6835C41.8171 13.7099 41.8351 13.7415 41.8555 13.7789L40.7666 14.9492C40.7259 14.8474 40.6852 14.766 40.6445 14.7049C40.4613 14.4098 40.2273 14.2165 39.922 14.135C39.6269 14.0536 39.3012 14.0638 38.9451 14.1554C38.5889 14.247 38.2225 14.4098 37.8562 14.6337C37.1642 15.0611 36.7164 15.6106 36.5129 16.2721C36.3195 16.9336 36.5129 17.7375 37.093 18.6941C37.5102 19.3657 37.9376 19.8338 38.3752 20.1086C38.8229 20.3834 39.2707 20.4851 39.7388 20.4241C40.2069 20.363 40.6954 20.1696 41.2246 19.8542C41.5299 19.6608 41.8046 19.4064 42.0285 19.0808C42.2524 18.7551 42.405 18.399 42.4763 18.0123C42.5475 17.6256 42.4966 17.249 42.344 16.8928L40.0645 18.2972ZM32.8901 26.6927C32.7171 27.4356 32.1574 28.2599 31.211 29.1656C30.6615 29.6947 30.1221 30.0814 29.5929 30.3359C29.0638 30.5903 28.5753 30.692 28.1275 30.6513C27.6798 30.6106 27.3033 30.4274 26.9878 30.112C26.8758 30 26.7639 29.8474 26.6418 29.6642L27.5373 28.4634C27.5984 28.6466 27.7001 28.7992 27.8324 28.9417C28.1072 29.2266 28.4532 29.3182 28.8704 29.2063C29.2876 29.0943 29.8066 28.7382 30.4376 28.1378C30.9973 27.5984 31.3535 27.1303 31.4857 26.7334C31.6282 26.3365 31.5468 25.9804 31.2619 25.6751C31.0583 25.4614 30.8345 25.3494 30.6106 25.3291C30.3867 25.3189 30.0814 25.4207 29.6947 25.6344C29.308 25.8481 28.7585 26.2348 28.036 26.7741C27.4355 27.2321 26.9267 27.5272 26.4993 27.6798C26.0719 27.8223 25.6954 27.8426 25.3697 27.7307C25.0441 27.6188 24.7083 27.3847 24.3725 27.0285C24.0061 26.6418 23.7822 26.2144 23.711 25.7565C23.6296 25.2884 23.711 24.8101 23.9247 24.3114C24.1384 23.8128 24.5149 23.3141 25.0237 22.8257C25.8684 22.0116 26.652 21.5333 27.3541 21.3908C28.0563 21.2483 28.6872 21.4722 29.2469 22.0523C29.3182 22.1235 29.3894 22.2151 29.4606 22.3169L28.7279 23.65C28.6364 23.4668 28.5346 23.3141 28.4227 23.2022C28.097 22.8664 27.7205 22.7544 27.2829 22.8867C26.8453 23.019 26.3772 23.3141 25.8786 23.7924C25.4206 24.23 25.1459 24.6473 25.0543 25.0441C24.9729 25.441 25.0746 25.787 25.3697 26.0923C25.5631 26.2958 25.7564 26.3976 25.9701 26.4078C26.1838 26.4179 26.4891 26.306 26.8962 26.0821C27.3033 25.8481 27.9037 25.441 28.6771 24.8508C29.3792 24.3216 30.0305 24.0163 30.6208 23.9553C31.211 23.8942 31.7503 24.1181 32.249 24.6371C32.8392 25.2578 33.0529 25.9498 32.8799 26.6927H32.8901ZM25.0992 35.4531L25.1052 35.4444V35.4546L25.0992 35.4531ZM16.2212 33.2972L25.0992 35.4531L24.1689 36.8182L22.3575 36.3399L19.8643 39.9831L20.9634 41.4993L20.0373 42.8528L14.8168 35.3426L16.2212 33.2972ZM16.1942 34.9507L19.0909 38.9247L21.0855 36.0143L16.3229 34.7626L16.1942 34.9507ZM8.15128 48.0428L14.8881 50.882L16.6079 46.8013L17.7374 47.2796L15.4478 52.7137L7.57123 49.3962L8.14111 48.053L8.15128 48.0428ZM8.48711 61.7198L9.32158 57.5475L13.5346 58.3922L13.2802 59.6439L11.4586 58.9315L11.2551 59.3691C11.7334 59.6642 12.0997 59.9898 12.3541 60.3257C12.6086 60.6717 12.7714 61.0584 12.8324 61.4858C12.8935 61.9132 12.8731 62.4118 12.7612 62.9817C12.6086 63.7348 12.3236 64.3657 11.8962 64.8643C11.4688 65.363 10.8989 65.709 10.1866 65.8922C9.47423 66.0753 8.62958 66.0652 7.66283 65.8718C6.70625 65.6785 5.94302 65.3325 5.36296 64.8236C4.79308 64.3148 4.40638 63.7042 4.22321 62.9919C4.04003 62.2795 4.02985 61.5061 4.19268 60.6717C4.32497 60.0102 4.5285 59.42 4.80326 58.9112C5.07802 58.4023 5.4342 58.0258 5.85143 57.7612C6.26866 57.5068 6.75713 57.4152 7.29648 57.5068C7.31683 57.5068 7.34736 57.5068 7.38806 57.517C7.40842 57.517 7.47965 57.5373 7.60177 57.578L7.72389 59.1757C7.62212 59.135 7.53053 59.1147 7.4593 59.1045C7.12348 59.0333 6.81819 59.0842 6.5536 59.247C6.28901 59.4098 6.07531 59.654 5.90231 59.9797C5.72931 60.3053 5.59702 60.6818 5.51561 61.0991C5.35279 61.903 5.44437 62.595 5.80055 63.1954C6.14654 63.7856 6.86907 64.1927 7.96812 64.4166C8.74152 64.5692 9.37246 64.5794 9.88128 64.4369C10.3799 64.2945 10.7666 64.0401 11.0414 63.6534C11.3162 63.2768 11.5095 62.7782 11.6316 62.1778C11.7029 61.8216 11.7029 61.4451 11.6113 61.0584C11.5299 60.6717 11.367 60.3257 11.133 60.0102C10.8989 59.6947 10.5936 59.4709 10.2171 59.3386L9.68793 61.9641L8.47694 61.7198H8.48711ZM51.8487 31.0787C52.4695 32.0964 52.6934 32.9919 52.5204 33.7755C52.3474 34.5692 51.7571 35.2612 50.7497 35.882C50.078 36.289 49.4674 36.5231 48.8976 36.5842C48.3277 36.6452 47.8392 36.5638 47.422 36.3501C47.0048 36.1262 46.6689 35.8006 46.4043 35.3732C46.2924 35.19 46.2212 35.0272 46.1703 34.8847L47.249 33.6941C47.2795 33.9892 47.3711 34.2436 47.5034 34.4675C47.6866 34.7626 47.9105 34.9661 48.1954 35.0781C48.4702 35.19 48.7653 35.2103 49.0909 35.1595C49.4064 35.0984 49.732 34.9763 50.0577 34.7728C50.424 34.5489 50.6988 34.3046 50.8718 34.0299C51.0448 33.7653 51.1058 33.4295 51.0651 33.0428C51.0143 32.6561 50.8311 32.1981 50.4953 31.6588L48.5617 28.4837L45.8446 30.1425L45.0509 29.1859L49.1723 26.6825L51.8487 31.0787ZM58.1682 28.2395C58.4735 29.3488 59.0332 30.112 59.8372 30.5394L59.8474 30.5496C60.6513 30.9668 61.6995 31.0075 62.9817 30.6615C64.2537 30.3053 65.1391 29.7456 65.6174 28.9722C66.1058 28.1886 66.1872 27.2524 65.8921 26.1432L64.5387 21.1669L63.1343 21.5536L64.4573 26.4383C64.6201 27.0285 64.6404 27.517 64.5387 27.9139C64.4267 28.3108 64.2232 28.6161 63.8976 28.8501C63.5719 29.0842 63.1547 29.2673 62.6357 29.4098C62.1065 29.5523 61.6486 29.6133 61.2517 29.5726C60.8548 29.5319 60.519 29.3691 60.2239 29.0842C59.9288 28.7992 59.7049 28.3515 59.5421 27.7612L58.2191 22.8766L56.8148 23.2633L58.1682 28.2395ZM76.6995 24.576L80.9532 24.7286L80.8006 29.0231L79.5285 28.9824L79.9356 27.0692L79.4674 26.9369C79.2537 27.4559 78.9993 27.863 78.694 28.1683C78.3989 28.4736 78.0427 28.6974 77.6255 28.8297C77.2083 28.962 76.7198 29.0129 76.1398 28.9926C75.3664 28.962 74.7049 28.7789 74.135 28.443C73.5753 28.1072 73.1377 27.5984 72.8426 26.9166C72.5475 26.2449 72.4152 25.4105 72.4457 24.4234C72.4763 23.4464 72.7001 22.6323 73.1072 21.9912C73.5142 21.3501 74.0536 20.8718 74.7354 20.5665C75.4071 20.2714 76.1703 20.1289 77.0251 20.1595C77.7069 20.1798 78.3175 20.2917 78.8569 20.4851C79.4064 20.6784 79.8338 20.9532 80.1594 21.3297C80.4851 21.7063 80.6479 22.1642 80.6479 22.7137V22.8155C80.6479 22.8358 80.6479 22.9071 80.6276 23.0394L79.0706 23.4159C79.0909 23.3141 79.1011 23.2225 79.1011 23.1411C79.1113 22.7951 79.0197 22.5102 78.8161 22.2761C78.6126 22.0421 78.3379 21.8691 77.9919 21.747C77.6459 21.6249 77.249 21.5638 76.8216 21.5434C76.0075 21.5129 75.3358 21.7266 74.7965 22.1642C74.2673 22.6018 73.9824 23.3854 73.9417 24.5048C73.9111 25.2884 74.0129 25.9193 74.2266 26.3874C74.4403 26.8555 74.7659 27.2015 75.1832 27.405C75.6004 27.6086 76.1194 27.7205 76.73 27.751C77.0963 27.7612 77.4627 27.7002 77.829 27.5475C78.1954 27.405 78.521 27.1913 78.7856 26.9064C79.0604 26.6215 79.2232 26.2856 79.2944 25.8989L76.6282 25.8073L76.6689 24.576H76.6995ZM95.7598 28.8399L91.7503 27.4152V27.4254L91.3433 28.5855L93.867 29.481C93.6839 29.827 93.4193 30.0916 93.0733 30.285C92.7273 30.4783 92.3609 30.5801 91.964 30.6106C91.5672 30.6411 91.2008 30.5903 90.8548 30.4682C90.2748 30.2646 89.8168 30 89.481 29.6744C89.135 29.3487 88.9417 28.9315 88.8704 28.4125C88.8094 27.9037 88.901 27.2728 89.1655 26.5299C89.5319 25.4715 90.0407 24.8203 90.6818 24.5557C91.3229 24.2911 92.0251 24.3013 92.7985 24.576C93.2056 24.7185 93.5617 24.9017 93.8569 25.1154C94.152 25.3393 94.3657 25.5835 94.4878 25.8684C94.6099 26.1534 94.6099 26.4587 94.498 26.7843C94.4776 26.8555 94.4369 26.9471 94.386 27.0387L95.9837 27.1405C96.0029 27.0982 96.0207 27.0618 96.0353 27.0316C96.0595 26.982 96.0753 26.9496 96.0753 26.9369C96.0957 26.8962 96.1058 26.8657 96.1058 26.8454C96.2687 26.3162 96.2483 25.8277 96.055 25.3698C95.8616 24.9118 95.536 24.515 95.0678 24.169C94.5997 23.823 94.0502 23.538 93.4091 23.3141C92.6052 23.0292 91.8317 22.9274 91.099 23.0089C90.3663 23.0903 89.7049 23.3752 89.1248 23.8738C88.5448 24.3725 88.0868 25.0848 87.7612 26.0007C87.4355 26.9268 87.3033 27.7612 87.3847 28.4939C87.4661 29.2266 87.7205 29.8372 88.1581 30.3359C88.5855 30.8345 89.1757 31.211 89.8982 31.4654C90.4376 31.6588 90.926 31.7504 91.3636 31.7504C91.791 31.7504 92.1981 31.6486 92.5746 31.4451C92.9512 31.2416 93.3175 30.9261 93.6839 30.4987L94.0909 30.7633L93.1242 32.4627L94.325 32.8901L95.7598 28.8399ZM105.733 29.7456L105.728 29.7524L104.542 28.9112L99.6065 35.8922L104.42 39.2911L105.132 38.2836L101.509 35.7192L105.728 29.7524L105.733 29.7558V29.7456ZM109.315 44.1147L115.573 38.2938L114.576 37.2253L108.318 43.0462L109.315 44.1147ZM117.629 54.4437L124.152 50.8108L124.783 51.9505L117.313 56.1127L116.031 53.8128L120.611 46.6791L120.458 46.4044L113.925 50.0475L113.294 48.9078L120.763 44.7456L122.045 47.0455L117.476 54.1791L117.629 54.4437ZM120.987 69.3013L125.19 68.3854L124.284 64.2334L124.274 64.2436L123.073 64.5082L123.643 67.1235C123.256 67.154 122.88 67.0726 122.544 66.8793C122.208 66.6859 121.923 66.4315 121.689 66.1059C121.455 65.7802 121.303 65.4444 121.221 65.0882C121.089 64.4878 121.079 63.9587 121.17 63.5007C121.272 63.0428 121.516 62.6459 121.923 62.3203C122.33 61.9946 122.91 61.7402 123.684 61.5774C124.773 61.3433 125.597 61.4349 126.157 61.8318C126.716 62.2287 127.083 62.8291 127.256 63.633C127.347 64.0502 127.378 64.4471 127.347 64.8135C127.317 65.1798 127.215 65.4851 127.042 65.7395C126.859 65.9939 126.604 66.1568 126.269 66.228C126.187 66.2483 126.106 66.2687 125.994 66.2687L126.747 67.6832C126.834 67.6765 126.895 67.6654 126.932 67.6586L126.932 67.6585C126.942 67.6566 126.951 67.6551 126.958 67.6541C126.963 67.6532 126.968 67.6527 126.971 67.6527C126.99 67.6479 127.007 67.6408 127.022 67.6347L127.022 67.6346C127.038 67.6278 127.052 67.6222 127.062 67.6222C127.592 67.4899 127.999 67.2151 128.284 66.808C128.569 66.401 128.731 65.9023 128.782 65.3325C128.833 64.7524 128.782 64.1316 128.64 63.4702C128.457 62.6357 128.141 61.9336 127.683 61.3535C127.225 60.7734 126.635 60.3664 125.902 60.1323C125.17 59.8983 124.335 59.8881 123.379 60.0916C122.412 60.3053 121.638 60.6411 121.058 61.0889C120.478 61.5468 120.092 62.0862 119.898 62.7171C119.705 63.3481 119.695 64.0401 119.858 64.7931C119.98 65.3528 120.163 65.8209 120.387 66.1873C120.621 66.5638 120.926 66.8589 121.292 67.0625C121.659 67.266 122.127 67.4186 122.666 67.5V67.9783L120.712 68.0496L120.987 69.3013ZM53.5278 46.3942C53.5278 45.631 53.711 44.939 54.0977 44.3182C54.4844 43.6975 55.0238 43.1785 55.6954 42.7714C56.2856 42.4152 56.8657 42.1608 57.4254 42.0184C57.9749 41.8759 58.4837 41.8657 58.9417 42.0082C59.3996 42.1405 59.766 42.4356 60.0407 42.8935L60.1323 43.036L59.0536 44.2063C59.0217 44.1265 58.9898 44.0655 58.9677 44.0233L58.9677 44.0232L58.9676 44.0231C58.9615 44.0115 58.9562 44.0013 58.9518 43.9926C58.7178 43.6059 58.3718 43.4329 57.9037 43.4532C57.4356 43.4838 56.9267 43.6568 56.3976 43.9824C55.7056 44.3996 55.2476 44.939 55.0441 45.5903C54.8304 46.2416 55.0136 47.0353 55.5733 47.9614C55.9803 48.633 56.4077 49.1113 56.8352 49.3861C57.2727 49.6608 57.7205 49.7728 58.1683 49.7219C58.6262 49.671 59.1045 49.4878 59.6235 49.1724C60.0305 48.9281 60.3664 48.6534 60.6411 48.3481C60.9159 48.053 61.0991 47.7375 61.1703 47.4322C61.2517 47.1167 61.2008 46.8216 61.038 46.5469C60.9973 46.4756 60.9261 46.4044 60.8548 46.3535L62.3915 45.8752C62.4831 45.977 62.5645 46.0787 62.6153 46.1703C62.8392 46.5367 62.9105 46.9641 62.8291 47.4322C62.7476 47.9003 62.4932 48.3888 62.076 48.8976C61.6588 49.4064 61.0685 49.8847 60.3155 50.3426C59.1045 51.0753 57.9953 51.3196 56.9776 51.0753C55.96 50.8311 55.0645 50.0577 54.2707 48.7551C53.7822 47.9512 53.538 47.1676 53.5278 46.4044V46.3942ZM70.4817 45.2443L69.6269 37.9783V37.9681L68.1818 38.1411L69.1791 46.6282L75.0305 45.9464L74.8881 44.7253L70.4817 45.2443ZM81.0346 45.8854C80.5868 45.0916 80.536 44.1452 80.882 43.0462L82.4389 38.131L83.8331 38.5686L82.3067 43.3922C82.1235 43.9824 82.0726 44.4709 82.1642 44.8677C82.2558 45.2646 82.4593 45.5801 82.7646 45.8243C83.0699 46.0686 83.4871 46.2721 84.0163 46.4349C84.5353 46.5977 84.983 46.669 85.3799 46.6486C85.7768 46.6283 86.1228 46.4756 86.4179 46.211C86.7232 45.9363 86.9674 45.5089 87.1506 44.9186L88.6771 40.095L90.0713 40.5326L88.5244 45.4478C88.1784 46.5469 87.5984 47.2897 86.7639 47.6764C85.9396 48.0733 84.8915 48.0631 83.6398 47.6764C82.3677 47.2796 81.5129 46.6791 81.0651 45.8854H81.0346ZM99.6472 53.6703C99.5964 53.2022 99.3216 52.673 98.8331 52.0625L98.8535 52.0726L99.1588 51.7368C99.5149 51.981 99.8406 52.1337 100.126 52.2151C100.41 52.2863 100.665 52.2863 100.899 52.2151C101.133 52.1439 101.357 51.9912 101.571 51.7572C102.11 51.1771 102.273 50.5462 102.069 49.8542C101.866 49.1622 101.306 48.399 100.4 47.5543L97.8358 45.173L92.0251 51.4417L94.905 54.1181C95.8209 54.9729 96.6248 55.4715 97.327 55.614C98.0292 55.7565 98.6398 55.5428 99.1791 54.9627C99.5455 54.5658 99.6981 54.1384 99.6472 53.6703ZM96.6554 53.9451C96.3806 53.7721 96.055 53.5177 95.6683 53.1615V53.1819L93.9077 51.5536L95.6174 49.7015L96.8996 50.8922C97.5916 51.5231 98.0597 52.0828 98.2938 52.5509C98.5278 53.019 98.4973 53.4159 98.192 53.7416C97.9478 54.0061 97.7035 54.1486 97.4491 54.169C97.1947 54.1893 96.9301 54.1181 96.6554 53.9451ZM96.462 48.7755L98.0495 47.0658H98.0597L99.4946 48.399C99.8813 48.7551 100.166 49.0604 100.349 49.325C100.533 49.5896 100.624 49.844 100.624 50.0984C100.624 50.3528 100.502 50.6072 100.258 50.8718C100.003 51.1568 99.6676 51.1975 99.2402 51.0245C98.8128 50.8413 98.2938 50.4749 97.6934 49.9152L96.462 48.7755ZM73.3514 147.985L75.8955 137.554L76.6486 137.615L73.6873 148.026L73.3514 147.985ZM82.2761 12.863L86.1635 2.85959L85.8379 2.76801L81.5434 12.7103L82.2761 12.863ZM63.8467 147.14L67.7239 137.137L68.4566 137.29L64.1723 147.232L63.8467 147.14ZM90.3257 14.3487L95.4749 4.93558L95.1696 4.80328L89.6133 14.0943L90.3257 14.3487ZM54.5251 145.064L59.6744 135.651L60.3867 135.906L54.8304 145.197L54.5251 145.064ZM98.1106 16.8623L104.45 8.20219L104.155 8.03937L97.439 16.5265L98.1106 16.8623ZM45.5495 141.798L51.8894 133.138L52.5611 133.474L45.8446 141.961L45.5495 141.798ZM105.509 20.3833L112.917 12.6187L112.653 12.4152L104.878 19.9559L105.509 20.3833ZM37.0828 137.381L44.5014 129.617L45.1221 130.044L37.3474 137.585L37.0828 137.381ZM112.368 24.8304L120.733 18.1038L120.499 17.8698L111.808 24.3216L112.368 24.8304ZM29.2673 131.896L37.6323 125.17L38.192 125.678L29.5014 132.14L29.2673 131.896ZM118.606 30.1323L127.765 24.5658L127.561 24.2911L118.107 29.5624L118.606 30.1323ZM22.2354 125.444L31.4043 119.868L31.8928 120.438L22.4389 125.709L22.2354 125.444ZM124.081 36.2076L133.901 31.8827L133.738 31.5876L123.674 35.5767L124.081 36.2076ZM16.099 118.117L25.9193 113.792L26.3263 114.423L16.2619 118.413L16.099 118.117ZM128.731 42.9546L139.03 39.9322L138.898 39.6269L128.396 42.2728L128.731 42.9546ZM10.9803 110.068L21.2788 107.056L21.6045 107.737L11.1024 110.373L10.9803 110.068ZM132.456 50.2409L143.06 48.5923L142.968 48.2667L132.212 49.5184L132.456 50.2409ZM6.95047 101.408L17.5543 99.7694L17.7883 100.482L7.03188 101.733L6.95047 101.408ZM135.193 57.9444L145.919 57.7002L145.879 57.3644L135.051 57.2015L135.193 57.9444ZM4.08073 92.2999L14.8067 92.0557L14.9491 92.7985L4.12144 92.6357L4.08073 92.2999ZM136.903 65.9532L147.568 67.1032V66.7673L136.862 65.2002L136.903 65.9532ZM2.43216 82.8969L13.097 84.0468L13.1377 84.8101L2.43216 83.2327V82.8969ZM137.554 74.1045L147.985 76.6486L148.026 76.3128L137.615 73.3515L137.554 74.1045ZM2.02509 73.3515L12.4457 75.8956L12.3847 76.6486L1.97421 73.6873L2.02509 73.3515ZM137.137 82.2762L147.14 86.1635L147.232 85.8379L137.29 81.5435L137.137 82.2762ZM145.064 95.4749L135.651 90.3257L135.906 89.6133L145.197 95.1696L145.064 95.4749ZM133.138 98.1106L141.798 104.451L141.961 104.155L133.474 97.439L133.138 98.1106ZM137.381 112.917L129.617 105.509L130.044 104.878L137.585 112.653L137.381 112.917ZM125.17 112.378L131.896 120.733L132.14 120.499L125.678 111.808L125.17 112.378ZM125.444 127.775L119.868 118.606L120.438 118.107L125.709 127.561L125.444 127.775ZM113.792 124.081L118.117 133.901L118.413 133.738L114.423 123.674L113.792 124.081ZM110.068 139.03L107.056 128.731L107.727 128.406L110.373 138.898L110.068 139.03ZM99.7693 132.456L101.408 143.06L101.733 142.968L100.482 132.212L99.7693 132.456ZM92.2999 145.919L92.0556 135.193L92.7985 135.051L92.6357 145.879L92.2999 145.919ZM84.0468 136.903L82.8969 147.568L83.2327 147.578L84.81 136.862L84.0468 136.903ZM68.9959 130.37L72.344 120.173L73.0869 120.295L69.3216 130.441L68.9959 130.37ZM80.2307 119.949L78.694 130.573L79.0299 130.583L80.9837 119.939L80.2307 119.949ZM88.2904 129.088L87.9546 118.362L88.6974 118.219L88.6262 129.047L88.2904 129.088ZM95.2816 115.451L97.4797 125.953L97.8053 125.851L95.9939 115.187L95.2816 115.451ZM105.987 121.282L101.998 111.32L102.649 110.923L106.292 121.119L105.987 121.282ZM107.9 106.079L113.558 115.197L113.823 114.993L108.47 105.58L107.9 106.079ZM36.4518 34.8033L42.0997 43.9213L41.5298 44.42L36.1771 35.0068L36.4518 34.8033ZM112.795 99.8915L119.949 107.89L120.173 107.646L113.273 99.3013L112.795 99.8915ZM30.0509 42.11L37.2049 50.1086L36.7368 50.6988L29.827 42.3644L30.0509 42.11ZM116.54 92.9512L124.976 99.5862L125.159 99.3013L116.906 92.2897L116.54 92.9512ZM25.0238 50.4139L33.46 57.0489L33.0936 57.7104L24.8406 50.6988L25.0238 50.4139ZM119.033 85.4614L128.487 90.5292L128.619 90.2239L119.277 84.749L119.033 85.4614ZM21.5129 59.4709L30.9769 64.5387L30.7327 65.251L21.3908 59.7761L21.5129 59.4709ZM120.173 77.6561L130.37 81.0143L130.441 80.6785L120.295 76.9132L120.173 77.6561ZM19.6303 68.996L29.827 72.344L29.7049 73.0869L19.559 69.3216L19.6303 68.996ZM30.0509 80.2307L19.4267 78.6941L19.4165 79.0299L30.0611 80.9837L30.0509 80.2307ZM20.9125 88.2904L31.6384 87.9546L31.7809 88.6975L20.9634 88.6262L20.9125 88.2904ZM34.5489 95.2816L24.0468 97.4797L24.1486 97.8053L34.8236 95.9939L34.5489 95.2816ZM28.7178 105.987L38.6805 101.998L39.0773 102.649L28.8806 106.282L28.7178 105.987ZM43.9213 107.9L34.8033 113.558L35.0068 113.823L44.4199 108.47L43.9213 107.9ZM42.1099 119.949L50.1086 112.795L50.6988 113.273L42.3643 120.173L42.1099 119.949ZM57.0489 116.54L50.4138 124.976L50.6988 125.159L57.7103 116.906L57.0489 116.54ZM59.4708 128.487L64.5387 119.033L65.251 119.278L59.7761 128.619L59.4708 128.487ZM72.7612 102.863L69.0672 112.938L69.3928 113.019L73.5041 103.005L72.7612 102.863ZM79.0909 113.182L80.0475 102.497L80.8005 102.436L79.4267 113.182H79.0909ZM86.9878 100.248L88.8297 110.821L89.1554 110.729L87.7001 100.003L86.9878 100.248ZM97.6323 106.018L93.114 96.289L93.7449 95.8616L97.9173 105.845L97.6323 106.018ZM51.9912 59.1249L45.1119 50.8922L44.8779 51.1364L51.5027 59.7049L51.9912 59.1249ZM104.888 99.1079L98.0088 90.8752L98.5075 90.3053L105.122 98.8637L104.888 99.1079ZM48.6635 65.6276L39.8915 59.4505L39.7286 59.7456L48.3379 66.3094L48.6635 65.6276ZM110.109 90.5496L101.336 84.3725L101.662 83.7009L110.271 90.2544L110.109 90.5496ZM47.137 72.7612L37.0624 69.0672L36.981 69.3928L46.9946 73.5041L47.137 72.7612ZM112.938 80.9329L102.863 77.2389L103.005 76.496L113.019 80.6072L112.938 80.9329ZM47.5034 80.0475L36.8182 79.0909L36.8284 79.4268L47.5644 80.8006L47.5034 80.0475ZM113.182 70.9091L102.497 69.9525L102.436 69.1995L113.182 70.5733V70.9091ZM49.7524 86.9878L39.1791 88.8298L39.2707 89.1554L49.9966 87.7002L49.7524 86.9878ZM110.821 61.1703L100.248 63.0122L100.003 62.2999L110.729 60.8447L110.821 61.1703ZM53.711 93.114L43.9824 97.6323L44.1554 97.9173L54.1384 93.745L53.711 93.114ZM50.8921 104.888L59.1248 98.0089L59.7049 98.5075L51.1364 105.122L50.8921 104.888ZM65.6275 101.337L59.4505 110.109L59.7456 110.271L66.3094 101.662L65.6275 101.337Z" fill="#352083"/>
<path fill-rule="evenodd" clip-rule="evenodd" d="M59.8988 70.7891C62.705 69.7677 64.077 71.7196 64.7428 73.5489L65.3749 73.3188C64.3047 70.3785 62.2259 69.2262 59.6687 70.157C57.5138 70.9413 56.5175 73.6575 57.4448 76.2051L58.9006 75.6753C58.0988 73.4725 58.0886 71.4479 59.8988 70.7891ZM84.3978 61.8722C86.2079 61.2133 87.5015 62.7708 88.3033 64.9736L89.7686 64.4402C88.8414 61.8926 86.3227 60.4557 84.1677 61.2401C81.6202 62.1673 80.7683 64.3863 81.8385 67.3265L82.4227 67.1139C81.7569 65.2846 81.5916 62.8935 84.3978 61.8722ZM87.6886 71.1518L90.964 69.9597L91.4047 70.1572C92.4899 73.1639 92.6973 76.4174 92.0026 79.5375C91.308 82.6577 89.7401 85.5159 87.4819 87.7784L87.4148 87.8028C87.0254 88.1831 86.6163 88.5489 86.1874 88.9003L86.1299 88.9212L86.0341 88.9561C85.6287 89.2797 85.2064 89.5819 84.7692 89.8612L84.5446 90.0188C84.1293 90.2784 83.7035 90.5093 83.2778 90.7402L83.1916 90.7716L82.9618 90.8552C82.4259 91.1154 81.8769 91.3478 81.3171 91.5515C80.7669 91.804 80.2036 92.0271 79.6297 92.2198L79.4094 92.3L79.2945 92.3418C78.82 92.4386 78.355 92.532 77.8796 92.5965L77.7455 92.6453L77.621 92.6907C77.1098 92.758 76.5953 92.7968 76.0798 92.8069L75.9936 92.8383L75.9074 92.8697C75.3623 92.862 74.8172 92.8543 74.2808 92.8109L74.2137 92.8353C70.9968 92.5474 67.931 91.3387 65.3831 89.3538C62.8352 87.369 60.9132 84.692 59.8471 81.6432L60.0481 81.2121L87.6886 71.1518ZM87.5834 71.906L63.908 80.5231C64.3435 81.2968 65.0197 81.9072 65.8338 82.2615C66.6479 82.6158 67.5554 82.6947 68.4184 82.4861C69.2814 82.2776 70.0527 81.793 70.6152 81.106C71.1776 80.419 71.5004 79.5672 71.5346 78.68L72.1188 78.4674C72.7034 79.1755 73.4984 79.679 74.3885 79.9048C75.2786 80.1306 76.2174 80.067 77.0689 79.7232C77.9204 79.3795 78.6403 78.7734 79.1241 77.9929C79.6079 77.2125 79.8306 76.2982 79.7597 75.3826L80.3535 75.1665C80.914 75.8919 81.7027 76.4073 82.5921 76.6293C83.4816 76.8514 84.4199 76.7671 85.2556 76.3903C86.0913 76.0134 86.7756 75.3658 87.1979 74.5522C87.6203 73.7385 87.7561 72.8063 87.5834 71.906ZM78.7867 91.6915L79.4345 91.5642L79.9325 91.3829L80.1719 91.2958C80.3731 91.2226 80.5838 91.1459 80.7849 91.0727C80.48 90.4515 79.9877 89.9417 79.3775 89.6154C78.7673 89.2891 78.07 89.1628 77.3841 89.2542C76.6981 89.3456 76.0583 89.6502 75.5548 90.125C75.0514 90.5997 74.7098 91.2206 74.5783 91.9C75.1016 91.9373 75.6241 91.9424 76.1396 91.9283C76.5715 91.9229 76.9895 91.8793 77.417 91.8321L77.5798 91.7729L77.7426 91.7136C77.9934 91.6874 78.2337 91.6325 78.4679 91.5906L78.7867 91.6915ZM85.5534 88.5887C85.9729 88.2581 86.3724 87.9027 86.7495 87.5243C86.2114 87.0883 85.5498 86.8325 84.8583 86.7932C84.1669 86.7538 83.4805 86.9328 82.8964 87.3049C82.3123 87.677 81.8599 88.2234 81.6034 88.8667C81.3468 89.51 81.299 90.2177 81.4667 90.8896L81.7827 90.7746L82.0796 90.6665L82.3286 90.5759L82.8267 90.3946L83.3987 90.0888L83.5998 90.0156C83.8283 89.9013 84.0498 89.7736 84.2632 89.6332L84.4164 89.5774L84.5792 89.5181C84.9231 89.229 85.2484 88.9186 85.5534 88.5887V88.5887Z" fill="#352083"/>
</svg>
