<?xml version="1.0" encoding="utf-8"?><?xml-stylesheet type="text/css" href="../styles/style.css"?>
<!-- Generator: Adobe Illustrator 26.3.1, SVG Export Plug-In . SVG Version: 6.00 Build 0)  -->
<svg version="1.1" id="Layer_2_00000134936824342378864610000001540099777916084876_"
	 xmlns="http://www.w3.org/2000/svg" xmlns:xlink="http://www.w3.org/1999/xlink" x="0px" y="0px" viewBox="0 0 5602.9 5589.9"
	 style="enable-background:new 0 0 5602.9 5589.9;" xml:space="preserve">
<style type="text/css">
	.st0{fill:none;stroke:#F7F76D;stroke-width:2;stroke-miterlimit:10;}
</style>
<g>
	<line vector-effect="non-scaling-stroke" class="st0" x1="2615.9" y1="2473.6" x2="2987" y2="2259.4"/>
	<line vector-effect="non-scaling-stroke" class="st0" x1="2686.8" y1="2442.2" x2="3094.2" y2="2309.3"/>
	<line vector-effect="non-scaling-stroke" class="st0" x1="2760.3" y1="2426" x2="3186.1" y2="2378.6"/>
	<line vector-effect="non-scaling-stroke" class="st0" x1="2834.2" y1="2425.1" x2="3260.9" y2="2463.3"/>
	<line vector-effect="non-scaling-stroke" class="st0" x1="2906.3" y1="2439.1" x2="3317.3" y2="2560.1"/>
	<line vector-effect="non-scaling-stroke" class="st0" x1="2974.4" y1="2466.9" x2="3353.6" y2="2666.2"/>
	<line vector-effect="non-scaling-stroke" class="st0" x1="3036.4" y1="2507.7" x2="3368.1" y2="2778.8"/>
	<line vector-effect="non-scaling-stroke" class="st0" x1="3089.9" y1="2561.1" x2="3359.4" y2="2894.2"/>
	<line vector-effect="non-scaling-stroke" class="st0" x1="3132" y1="2626.8" x2="3326.6" y2="3008.6"/>
	<line vector-effect="non-scaling-stroke" class="st0" x1="3159.7" y1="2698.5" x2="3271.4" y2="3112.1"/>
	<line vector-effect="non-scaling-stroke" class="st0" x1="3172.1" y1="2772.3" x2="3197.9" y2="3199.9"/>
	<line vector-effect="non-scaling-stroke" class="st0" x1="3169.1" y1="2846" x2="3109.9" y2="3270.3"/>
	<line vector-effect="non-scaling-stroke" class="st0" x1="3151.6" y1="2917.3" x2="3010.5" y2="3321.8"/>
	<line vector-effect="non-scaling-stroke" class="st0" x1="3120.6" y1="2984" x2="2902.5" y2="3352.9"/>
	<line vector-effect="non-scaling-stroke" class="st0" x1="3076.6" y1="3044.1" x2="2788.9" y2="3361.7"/>
	<line vector-effect="non-scaling-stroke" class="st0" x1="3020" y1="3095.2" x2="2673.3" y2="3346.9"/>
	<line vector-effect="non-scaling-stroke" class="st0" x1="2951.9" y1="3133.9" x2="2560.6" y2="3308.2"/>
	<line vector-effect="non-scaling-stroke" class="st0" x1="2879.6" y1="3157.7" x2="2460.8" y2="3248.1"/>
	<line vector-effect="non-scaling-stroke" class="st0" x1="2805.6" y1="3166.2" x2="2377.2" y2="3170.7"/>
	<line vector-effect="non-scaling-stroke" class="st0" x1="2732.3" y1="3159.6" x2="2311.4" y2="3079.6"/>
	<line vector-effect="non-scaling-stroke" class="st0" x1="2661.9" y1="3138.6" x2="2264.8" y2="2977.7"/>
	<line vector-effect="non-scaling-stroke" class="st0" x1="2596.6" y1="3104.2" x2="2239.2" y2="2868"/>
	<line vector-effect="non-scaling-stroke" class="st0" x1="2538.6" y1="3057.1" x2="2236.2" y2="2753.6"/>
	<line vector-effect="non-scaling-stroke" class="st0" x1="2490.3" y1="2997.4" x2="2256.9" y2="2638"/>
	<line vector-effect="non-scaling-stroke" class="st0" x1="2455.1" y1="2927.6" x2="2301.4" y2="2527.7"/>
	<line vector-effect="non-scaling-stroke" class="st0" x1="2435.1" y1="2854.6" x2="2366.2" y2="2431.8"/>
	<line vector-effect="non-scaling-stroke" class="st0" x1="2430.4" y1="2780.6" x2="2447.4" y2="2352.5"/>
	<line vector-effect="non-scaling-stroke" class="st0" x1="2440.8" y1="2707.8" x2="2541.4" y2="2291.4"/>
	<line vector-effect="non-scaling-stroke" class="st0" x1="2465.2" y1="2638.5" x2="2645.5" y2="2249.9"/>
	<line vector-effect="non-scaling-stroke" class="st0" x1="2502.8" y1="2574.8" x2="2756.7" y2="2229.8"/>
	<line vector-effect="non-scaling-stroke" class="st0" x1="2553.1" y1="2518.9" x2="2871.8" y2="2232.6"/>
</g>
<g>
	<path vector-effect="non-scaling-stroke" class="st0" d="M2621.1,1675.2c452.8-612.7,1180.3-1010,2000.6-1010"/>
	<path vector-effect="non-scaling-stroke" class="st0" d="M2866,1692.3c573.2-501.8,1368.7-734.6,2170.1-559.4"/>
	<path vector-effect="non-scaling-stroke" class="st0" d="M3099.9,1811.3c665.6-370.6,1492.3-431.6,2239.2-92.4"/>
	<path vector-effect="non-scaling-stroke" class="st0" d="M3317.4,1840.4c727.4-226.4,1549-116.8,2210.6,368.2"/>
	<path vector-effect="non-scaling-stroke" class="st0" d="M3511.8,1917.2c758.2-74.6,1540.6,199.1,2090.4,807.8"/>
	<path vector-effect="non-scaling-stroke" class="st0" d="M3676.9,2075.1c757.5,81,1468,507.9,1882.6,1215.7"/>
	<path vector-effect="non-scaling-stroke" class="st0" d="M3807.4,2270c724.3,236.1,1331,800.9,1590.1,1579.2"/>
	<path vector-effect="non-scaling-stroke" class="st0" d="M3896.2,2493c657.9,384.1,1131.2,1064.6,1219.6,1880.1"/>
	<path vector-effect="non-scaling-stroke" class="st0" d="M3925.6,2738.3c560.3,516.2,876.9,1282.2,788.5,2097.8"/>
	<path vector-effect="non-scaling-stroke" class="st0" d="M3857,2978.1c438.3,623.1,585.4,1438.9,326.3,2217.2"/>
	<path vector-effect="non-scaling-stroke" class="st0" d="M3759.5,3204.6c299.8,700.4,274.9,1528.9-139.8,2236.7"/>
	<path vector-effect="non-scaling-stroke" class="st0" d="M3729,3411.4c151.2,746.7-41.5,1552.9-591.3,2161.6"/>
	<path vector-effect="non-scaling-stroke" class="st0" d="M3607.4,3591.8c-3,761.8-354.9,1512.3-1016.4,1997.3"/>
	<path vector-effect="non-scaling-stroke" class="st0" d="M3427.5,3740.3c-159,745-657.1,1407.6-1404,1746.8"/>
	<path vector-effect="non-scaling-stroke" class="st0" d="M3218.3,3851.1c-311.5,695.2-937.4,1238.7-1738.8,1413.9"/>
	<path vector-effect="non-scaling-stroke" class="st0" d="M2981.8,3914.7C2529,4527.3,1801.5,4924.6,981.2,4924.6"/>
	<path vector-effect="non-scaling-stroke" class="st0" d="M2736.9,3897.6c-573.2,501.8-1368.7,734.6-2170.1,559.5"/>
	<path vector-effect="non-scaling-stroke" class="st0" d="M2503,3778.6c-665.6,370.6-1492.3,431.6-2239.2,92.4"/>
	<path vector-effect="non-scaling-stroke" class="st0" d="M2285.5,3749.5c-727.4,226.4-1549,116.8-2210.6-368.2"/>
	<path vector-effect="non-scaling-stroke" class="st0" d="M2091.1,3672.7C1333,3747.3,550.5,3473.6,0.7,2864.9"/>
	<path vector-effect="non-scaling-stroke" class="st0" d="M1926,3514.8c-757.5-81-1468-507.9-1882.6-1215.7"/>
	<path vector-effect="non-scaling-stroke" class="st0" d="M1795.5,3319.9C1071.2,3083.8,464.4,2519,205.3,1740.7"/>
	<path vector-effect="non-scaling-stroke" class="st0" d="M1706.8,3096.9C1048.9,2712.7,575.5,2032.3,487.2,1216.7"/>
	<path vector-effect="non-scaling-stroke" class="st0" d="M1677.3,2851.6C1117,2335.4,800.4,1569.4,888.8,753.8"/>
	<path vector-effect="non-scaling-stroke" class="st0" d="M1745.9,2611.8c-438.3-623.1-585.5-1438.9-326.3-2217.2"/>
	<path vector-effect="non-scaling-stroke" class="st0" d="M1843.4,2385.3c-299.8-700.4-274.9-1528.9,139.8-2236.7"/>
	<path vector-effect="non-scaling-stroke" class="st0" d="M1873.9,2178.5c-151.2-746.7,41.5-1552.9,591.3-2161.6"/>
	<path vector-effect="non-scaling-stroke" class="st0" d="M1995.5,1998.1c3-761.8,354.9-1512.3,1016.4-1997.3"/>
	<path vector-effect="non-scaling-stroke" class="st0" d="M2175.4,1849.6c159-745,657.1-1407.6,1404-1746.8"/>
	<path vector-effect="non-scaling-stroke" class="st0" d="M2384.6,1738.8C2696.1,1043.5,3322,500.1,4123.4,324.9"/>
</g>
</svg>
