<?xml version="1.0" encoding="UTF-8"?><svg id="Layer_2" xmlns="http://www.w3.org/2000/svg" viewBox="0 0 50 34"><g id="Layer_2-2"><g><path d="M49.98,11.72s0-.07,0-.1c-.16-1.98-1.07-3.53-2.69-4.59-.02-.01-.04-.03-.07-.04-1.27-.83-2.91-1.35-4.87-1.55-1.69-.17-4.21-.32-7.49-.44-1.18-.04-2.31-.06-3.36-.06-1.92,0-3.64,.07-5.13,.2-.4-.57-.88-1.16-1.43-1.74C22.8,1.14,20.38,0,17.77,0h-.08s-.12,0-.12,0c-1.9,0-3.93,.91-6.22,2.77-1.21,.94-2.25,2.34-3.11,4.15-.31-.08-.63-.12-.95-.12-.04,0-.08,0-.12,0-.06,0-.12,0-.17,0-2.21,0-3.97,1.33-5.25,3.94-.01,.03-.02,.05-.03,.08-.82,1.68-1.36,3.54-1.62,5.54,0,.02,0,.04,0,.06-.24,2.09,0,4.22,.69,6.31,.01,.03,.02,.07,.04,.1,.62,1.84,2.21,4.02,6.28,4.2,.22,.29,.46,.57,.72,.84,1.48,1.54,3.26,2.33,5.28,2.33h.07c.21,0,.48-.03,.83-.08,.31,.48,.7,.97,1.16,1.44,1.54,1.62,3.26,2.44,5.12,2.44h.1c1.61,0,3.05-.47,4.27-1.38,1.25-.93,1.96-2.02,2.12-3.26,1.34-.2,2.59-.68,3.72-1.45,.03-.02,.06-.03,.09-.05,1.91-1.35,2.85-3.03,2.81-5,0-.7-.12-1.4-.37-2.07,.89-.84,1.36-2.02,1.37-3.45,0-.13,0-.25,0-.38,1.18,.15,2.45,.31,3.86,.51,1.33,.18,2.56,.28,3.64,.28,2.02,0,3.58-.31,4.79-.94,.02-.01,.05-.03,.07-.04,2.91-1.49,3.38-3.54,3.24-5.05Zm-3.72,4.26h-.01c-1.06,.57-2.51,.85-4.36,.85-1.04,0-2.21-.09-3.51-.27-1.87-.26-3.59-.49-5.17-.67,.2,.48,.29,.95,.26,1.43,0,1.45-.53,2.51-1.58,3.19,.4,.75,.59,1.54,.58,2.38,.04,1.65-.77,3.05-2.41,4.22,0,0-.01,0-.02,0-1.25,.85-2.64,1.32-4.15,1.41v.18h0c.05,1.21-.55,2.27-1.77,3.18-1.07,.8-2.31,1.2-3.74,1.2-.03,0-.06,0-.08,0-1.6,0-3.08-.71-4.44-2.14h0c-.58-.61-1.02-1.21-1.34-1.81h-.08c-.07,0-.2,.02-.4,.06-.37,.06-.65,.09-.83,.09-.01,0-.02,0-.03,0-.01,0-.02,0-.03,0-1.77,0-3.31-.68-4.62-2.05-.35-.36-.66-.74-.92-1.14-.07,.01-.15,.02-.22,.02-.02,0-.04,0-.06,0-3.01-.1-4.88-1.32-5.63-3.66h-.01c-.67-2-.88-3.98-.65-5.95h0c.24-1.95,.77-3.73,1.57-5.35h-.01c1.11-2.27,2.58-3.41,4.41-3.41,.06,0,.12,0,.18,0,.04,0,.08,0,.12,0,.48,0,.96,.12,1.44,.38,.86-2.08,1.93-3.61,3.2-4.61,2.1-1.71,3.98-2.56,5.64-2.56,.04,0,.08,0,.12,0,.02,0,.05,0,.07,0,2.36,0,4.53,1.03,6.5,3.1,.7,.73,1.26,1.45,1.68,2.16,.14-.07,.29-.12,.46-.13,1.47-.13,3.17-.2,5.09-.2,1.04,0,2.15,.02,3.32,.06,3.31,.12,5.78,.27,7.43,.44,1.87,.19,3.38,.67,4.53,1.45h0c1.37,.89,2.13,2.18,2.27,3.87h-.01c.23,1.8-.7,3.23-2.79,4.29Z" style="fill:#e1ddfb;"/><path d="M20.19,27.14h-.01c-.84-.5-1.51-1.06-2.01-1.68-.17,0-.33-.03-.5-.1-.05-.02-.09-.03-.13-.05-.04,0-.09,0-.16,0-.23,0-.42,.11-.58,.3h0c-.23,.33-.34,.72-.34,1.17,.04,.76,.44,1.55,1.21,2.35h.01c.83,.88,1.73,1.33,2.69,1.36,.85,0,1.59-.23,2.22-.7,.45-.33,.7-.7,.74-1.11-.11-.12-.19-.27-.24-.42-1.02-.22-1.98-.6-2.9-1.13Z" style="fill:#e1ddfb;"/><path d="M17.05,22.19c0-1.47,.58-2.54,1.72-3.2h-.01c.1-.06,.19-.11,.3-.17-.47-.71-.71-1.5-.71-2.36-.99,1.14-2.04,1.77-3.15,1.89-.35,.05-.67-.04-.95-.25-.28-.21-.45-.49-.5-.84-.05-.35,.04-.67,.25-.96,.21-.28,.49-.45,.83-.5,.64-.14,1.27-.6,1.87-1.39v.02c.62-.86,.96-1.69,.98-2.5-.02-.17-.1-.45-.23-.82,0,0-.01-.02-.02-.03-.27-.8-.34-1.43-.2-1.88,.07-.32,.24-.58,.5-.77,.27-.19,.56-.27,.89-.23,.32,.04,.6,.17,.82,.42,.1,.12,.18,.24,.23,.37,.38,.36,.97,.94,1.79,1.75h0c.5,.5,1.05,.76,1.65,.78,.4,.01,.71-.13,.94-.43,.25-.38,.38-.86,.38-1.45,0-.35-.05-.71-.16-1.07-.32-.89-.93-1.82-1.84-2.78h0c-1.44-1.5-3.01-2.27-4.72-2.3-1.2,.04-2.58,.71-4.15,1.98-1.65,1.41-2.88,3.99-3.7,7.76-.08,.35-.26,.61-.56,.8-.3,.19-.62,.25-.96,.18-.34-.08-.61-.27-.8-.57-.19-.3-.25-.62-.18-.97,.16-.72,.33-1.41,.52-2.07-.24-.18-.47-.29-.7-.32-.92,.07-1.69,.74-2.29,1.98h-.01c-.67,1.37-1.11,2.87-1.31,4.5h0c-.18,1.61,0,3.21,.54,4.82h0c.41,1.02,1.24,1.64,2.5,1.84-.03-.21-.05-.42-.06-.63-.02-.35,.1-.66,.33-.92,.24-.26,.53-.4,.89-.42,.35-.02,.66,.1,.92,.34,.26,.24,.4,.54,.42,.9,.06,1.01,.47,1.92,1.25,2.72h0c.8,.84,1.74,1.26,2.82,1.26,.09,0,.23-.02,.43-.06h0c.12-.02,.22-.03,.31-.05,.04-1.02,.34-1.88,.91-2.58h.01c.61-.77,1.36-1.18,2.25-1.26-.02-.19-.02-.37-.02-.57Z" style="fill:#e1ddfb;"/><path d="M26.69,22.17c-.77,0-1.52-.07-2.26-.2h0c-1.01-.21-1.98-.55-2.9-1.05h.03s-.08-.03-.12-.06c-.55,.03-1.01,.15-1.37,.35h-.01c-.31,.21-.46,.54-.46,.98,.04,1.11,.67,2.02,1.87,2.73h-.01c1.2,.69,2.51,1.03,3.93,1.03,1.18,0,2.25-.32,3.21-.97h-.02c.85-.59,1.29-1.29,1.32-2.1,0-.42-.11-.82-.31-1.2-.91,.33-1.88,.49-2.91,.49Z" style="fill:#e1ddfb;"/><path d="M45.39,9.97h-.01c-.87-.57-2-.91-3.39-1.05-1.61-.16-4.03-.3-7.26-.42h0c-3.09-.11-5.71-.07-7.86,.1,.06,.35,.1,.71,.09,1.05,0,1.22-.29,2.22-.88,2.98-.19,.26-.41,.5-.65,.69,0,0,.02,0,.03,.01,.15,.06,.28,.12,.4,.16,.33,.12,.57,.35,.72,.67s.17,.65,.05,.98c-.12,.33-.34,.57-.67,.73-.32,.15-.64,.17-.97,.05-.14-.05-.3-.12-.48-.2-.01,0-.03-.01-.05-.02-.75-.29-1.23-.44-1.46-.47-.7,0-1.26,.11-1.69,.32l.02-.02c-.29,.17-.44,.43-.43,.78,.05,.86,.54,1.58,1.48,2.17,.11,.05,.22,.11,.33,.17,0,0,.02,0,.03,.01,.69,.37,1.41,.64,2.18,.79h0c.57,.1,1.17,.16,1.77,.16,.85,0,1.64-.15,2.38-.46,.02,0,.04-.02,.06-.03,.09-.03,.2-.08,.32-.13,.28-.16,.61-.36,1-.61,.31-.24,.46-.6,.46-1.07-.08-.62-.61-1.29-1.56-2.01-.23-.17-.38-.4-.46-.67-.08-.27-.07-.54,.04-.81,.1-.27,.28-.48,.52-.63,.24-.15,.5-.21,.79-.19,2.4,.21,5.23,.55,8.5,1.01,2.91,.4,5.04,.29,6.39-.32h-.01c.92-.45,1.39-1.05,1.4-1.77h-.01c-.06-.85-.42-1.49-1.1-1.94Z" style="fill:#e1ddfb;"/></g></g></svg>