<?xml version="1.0" encoding="UTF-8"?><svg id="Layer_2" xmlns="http://www.w3.org/2000/svg" viewBox="0 0 106 106"><g id="Layer_2-2"><circle cx="53" cy="53" r="53" style="fill:none;"/><g><polygon points="23.62 25.8 20.46 22.61 23.97 19.13 22.77 17.92 19.26 21.41 16.79 18.92 21.04 14.7 19.85 13.5 14.23 19.07 22.26 27.15 23.62 25.8" style="fill:#fdcecd;"/><path d="M33.83,15.83l-.44,.29c-.26,.17-.44,.14-.64-.18l-1.68-2.62c-1.1-1.72-2.71-2.08-4.44-.97-1.54,.99-2.12,2.49-2.18,3.58l1.69,.53c-.07-.99,.31-2,1.24-2.6s1.58-.35,2.08,.32l-1.7,2.48c-.84,1.17-1.15,2.21-.51,3.2,.64,1,1.74,1.2,2.89,.47,1.46-.94,1.43-2.46,1.06-3.51l.33,.51c.64,1,1.45,.97,2.19,.49l.99-.63-.88-1.37Zm-3.92,2.9c-.59,.38-1.01,.31-1.27-.09-.23-.36-.14-.76,.28-1.41l1.27-1.95,.48,.74c.61,.94,.3,2.03-.76,2.71Z" style="fill:#fdcecd;"/><path d="M39.51,15.51c1.95-.71,2.78-2.26,2.66-3.88l-1.9-.21c.23,1.18-.05,2.14-1.27,2.58-1.23,.45-2.31-.19-2.91-1.82-.6-1.65-.18-2.83,1.05-3.28,1.2-.44,2.05,.11,2.63,1.16l1.32-1.39c-.95-1.32-2.58-1.97-4.53-1.26-2.32,.84-3.18,3-2.29,5.43,.88,2.41,2.92,3.51,5.24,2.67Z" style="fill:#fdcecd;"/><path d="M48.05,13.47c1.82-.23,2.83-1.2,3.33-2.22l-1.32-1.07c-.22,.73-.76,1.55-2.2,1.74-1.3,.17-2.26-.52-2.55-1.97l5.87-.75c.01-.17,0-.53-.04-.83-.29-2.28-1.87-3.74-4.33-3.42-2.31,.29-3.69,2.2-3.37,4.78,.33,2.56,2.15,4.06,4.59,3.75Zm-1.03-7.01c1.25-.16,2.08,.45,2.38,1.74l-4.22,.54c-.02-1.35,.67-2.12,1.83-2.27Z" style="fill:#fdcecd;"/><path d="M55.57,10.85c.14,1.3,.72,2.47,2.36,2.63,2.05,.21,3.5-1.3,3.77-3.95,.27-2.65-.84-4.43-2.85-4.63-1.64-.17-2.48,.86-2.88,2.11l.55-5.31-1.89-.19-1.17,11.33,1.89,.2,.22-2.18Zm.14-1.4l.11-1.03c.14-1.35,.79-2.19,2.12-2.05,1.2,.12,2,1.13,1.81,2.97-.19,1.86-1.18,2.66-2.38,2.54-1.34-.14-1.8-1.07-1.66-2.43Z" style="fill:#fdcecd;"/><path d="M66.19,15.41c2.28,.81,4.39-.28,5.25-2.7,.86-2.44-.1-4.61-2.37-5.42-2.24-.79-4.36,.29-5.22,2.73-.86,2.42,.1,4.6,2.34,5.39Zm-.5-4.74c.64-1.81,1.71-2.29,2.87-1.89,1.17,.41,1.7,1.47,1.06,3.28-.64,1.79-1.71,2.28-2.88,1.87-1.15-.41-1.68-1.46-1.05-3.26Z" style="fill:#fdcecd;"/><path d="M74.53,19.48c2.03,1.31,4.34,.75,5.74-1.41,1.41-2.17,.98-4.51-1.05-5.82-2-1.29-4.31-.73-5.72,1.44-1.4,2.15-.97,4.5,1.03,5.79Zm.61-4.73c1.04-1.61,2.2-1.83,3.23-1.17,1.04,.67,1.31,1.82,.27,3.43-1.04,1.6-2.19,1.82-3.23,1.15-1.03-.67-1.3-1.81-.26-3.41Z" style="fill:#fdcecd;"/><polygon points="80.65 24.05 82.55 22.21 84.3 22.25 83.19 26.68 84.74 28.28 86.02 22.38 90.69 22.52 89.07 20.85 85.91 20.76 83.89 20.82 85.08 19.76 88.84 16.13 87.51 14.76 79.32 22.68 80.65 24.05" style="fill:#fdcecd;"/><polygon points="82.58 79.98 85.77 83.14 82.28 86.65 83.49 87.85 86.97 84.34 89.46 86.81 85.24 91.06 86.45 92.25 92.02 86.64 83.93 78.62 82.58 79.98" style="fill:#fdcecd;"/><path d="M78.91,91.94c-.95,.62-1.57,.36-2.09-.3l1.68-2.5c.84-1.18,1.13-2.22,.49-3.2-.65-1-1.75-1.19-2.89-.45-1.45,.95-1.42,2.47-1.03,3.52l-.33-.51c-.65-1-1.46-.96-2.2-.47l-.98,.64,.89,1.37,.44-.29c.26-.17,.44-.14,.64,.17l1.7,2.61c1.12,1.71,2.72,2.06,4.45,.93,1.54-1,2.1-2.51,2.16-3.6l-1.7-.52c.08,.99-.3,2-1.22,2.6Zm-3.31-2.12c-.61-.94-.31-2.03,.74-2.72,.58-.38,1.01-.32,1.27,.08,.23,.36,.15,.76-.27,1.42l-1.26,1.96-.48-.74Z" style="fill:#fdcecd;"/><path d="M66.78,90.38c-1.94,.72-2.76,2.28-2.63,3.9l1.91,.2c-.24-1.18,.04-2.14,1.25-2.59,1.23-.46,2.31,.17,2.92,1.8,.61,1.64,.2,2.83-1.03,3.28-1.2,.45-2.05-.09-2.64-1.14l-1.31,1.4c.96,1.31,2.6,1.95,4.54,1.23,2.31-.86,3.15-3.03,2.25-5.45-.9-2.41-2.95-3.49-5.26-2.63Z" style="fill:#fdcecd;"/><path d="M58.26,92.49c-1.82,.25-2.82,1.22-3.32,2.25l1.33,1.06c.21-.73,.75-1.56,2.18-1.75,1.3-.17,2.26,.5,2.56,1.95l-5.86,.79c-.01,.17,0,.53,.04,.83,.31,2.27,1.89,3.72,4.35,3.39,2.31-.31,3.68-2.23,3.33-4.81-.35-2.56-2.18-4.05-4.62-3.72Zm1.08,7.01c-1.25,.17-2.08-.44-2.39-1.72l4.21-.57c.03,1.35-.66,2.13-1.82,2.29Z" style="fill:#fdcecd;"/><path d="M50.73,95.17c-.15-1.29-.74-2.46-2.38-2.62-2.05-.2-3.49,1.32-3.74,3.98-.25,2.66,.88,4.42,2.89,4.61,1.64,.16,2.47-.87,2.87-2.13l-.51,5.31,1.9,.18,1.08-11.34-1.89-.18-.21,2.18Zm-.13,1.4l-.1,1.03c-.13,1.35-.77,2.2-2.11,2.07-1.2-.11-2.01-1.11-1.83-2.96,.18-1.86,1.16-2.67,2.36-2.56,1.34,.13,1.81,1.06,1.68,2.41Z" style="fill:#fdcecd;"/><path d="M40.07,90.69c-2.28-.79-4.39,.32-5.23,2.74-.84,2.44,.13,4.61,2.41,5.4,2.25,.78,4.36-.33,5.2-2.77,.84-2.43-.14-4.6-2.39-5.38Zm.54,4.74c-.63,1.82-1.7,2.31-2.85,1.91-1.17-.41-1.71-1.45-1.08-3.27,.62-1.8,1.69-2.29,2.87-1.89,1.16,.4,1.69,1.45,1.07,3.25Z" style="fill:#fdcecd;"/><path d="M31.73,86.68c-2.04-1.29-4.34-.71-5.72,1.46-1.39,2.18-.94,4.52,1.1,5.81,2.01,1.28,4.32,.69,5.7-1.49,1.38-2.17,.93-4.5-1.08-5.78Zm-.57,4.73c-1.03,1.62-2.19,1.85-3.22,1.2-1.05-.67-1.33-1.81-.3-3.43,1.02-1.61,2.18-1.84,3.22-1.17,1.03,.66,1.31,1.8,.29,3.41Z" style="fill:#fdcecd;"/><polygon points="25.57 82.16 23.68 84.02 21.93 83.99 23.01 79.55 21.45 77.96 20.22 83.86 15.54 83.76 17.17 85.42 20.33 85.49 22.35 85.41 21.17 86.48 17.44 90.14 18.78 91.5 26.9 83.51 25.57 82.16" style="fill:#fdcecd;"/><polygon points="13 53.6 .52 51.72 .5 52.12 13.02 54.49 13 53.6" style="fill:#fdcecd;"/><polygon points="92.98 51.51 93 52.4 105.48 54.28 105.5 53.88 92.98 51.51" style="fill:#fdcecd;"/><polygon points="13.38 47.46 1.33 43.68 1.25 44.07 13.26 48.34 13.38 47.46" style="fill:#fdcecd;"/><polygon points="92.62 58.54 104.67 62.32 104.75 61.93 92.74 57.66 92.62 58.54" style="fill:#fdcecd;"/><polygon points="14.7 41.44 3.38 35.87 3.24 36.24 14.45 42.29 14.7 41.44" style="fill:#fdcecd;"/><polygon points="91.3 64.56 102.62 70.13 102.76 69.76 91.55 63.71 91.3 64.56" style="fill:#fdcecd;"/><polygon points="16.93 35.7 6.59 28.45 6.4 28.8 16.55 36.5 16.93 35.7" style="fill:#fdcecd;"/><polygon points="89.07 70.3 99.41 77.55 99.6 77.2 89.45 69.5 89.07 70.3" style="fill:#fdcecd;"/><polygon points="13.56 59.67 .93 59.7 .97 60.1 13.71 60.54 13.56 59.67" style="fill:#fdcecd;"/><polygon points="92.44 46.33 105.07 46.3 105.03 45.9 92.29 45.46 92.44 46.33" style="fill:#fdcecd;"/><polygon points="15.03 65.58 2.55 67.53 2.65 67.91 15.31 66.42 15.03 65.58" style="fill:#fdcecd;"/><polygon points="90.97 40.42 103.45 38.47 103.35 38.09 90.69 39.58 90.97 40.42" style="fill:#fdcecd;"/><polygon points="17.38 71.19 5.34 75.02 5.5 75.38 17.78 71.99 17.38 71.19" style="fill:#fdcecd;"/><polygon points="88.62 34.81 100.66 30.98 100.5 30.62 88.22 34.01 88.62 34.81" style="fill:#fdcecd;"/></g></g></svg>