<?xml version="1.0" encoding="UTF-8"?><svg id="Layer_2" xmlns="http://www.w3.org/2000/svg" viewBox="0 0 46 35"><g id="Layer_2-2"><g><path d="M46,5.94c.04-1.55-.54-3.04-1.65-4.17-1.1-1.13-2.62-1.77-4.18-1.77H5.97C2.74,0,0,2.72,0,5.95V29.13c0,3.24,2.68,5.87,5.97,5.87H40.1c3.25,0,5.9-2.63,5.9-5.87V5.94Zm-5.9,28.01H5.97c-2.72,0-4.93-2.12-4.93-4.83V5.95C1.05,3.31,3.25,1.05,5.97,1.05H40.17c2.65,0,4.85,2.19,4.78,4.9V29.13c0,2.63-2.13,4.83-4.85,4.83Z" style="fill:#e1ddfb;"/><path d="M40.13,4.54H5.86c-.74,0-1.33,.66-1.33,1.39V29.15c0,.73,.59,1.32,1.33,1.32H40.14c.74,0,1.33-.59,1.33-1.32V5.85c0-.73-.59-1.32-1.33-1.32Zm-1.69,18.38c.74,.59,.88,1.76,.22,2.49-.37,.44-.88,.66-1.4,.66-.37,0-.74-.15-1.11-.44l-8.25-6.74-3.83,2.86c-.37,.22-.74,.37-1.11,.37-.44,0-.81-.15-1.11-.37l-3.83-2.86-8.25,6.74c-.3,.29-.74,.44-1.11,.44-.52,0-1.03-.22-1.4-.66-.66-.73-.52-1.83,.22-2.49l7.59-6.15-7.52-5.49c-.81-.59-.96-1.69-.37-2.49,.59-.81,1.7-.95,2.51-.37l13.27,9.74,13.27-9.74c.81-.59,1.92-.44,2.51,.37h0c.59,.81,.44,1.9-.36,2.49l-7.52,5.49,7.59,6.15Z" style="fill:#e1ddfb;"/></g></g></svg>