<?xml version="1.0" encoding="UTF-8"?><svg id="Layer_2" xmlns="http://www.w3.org/2000/svg" viewBox="0 0 106 106"><g id="Layer_2-2"><circle cx="53" cy="53" r="53" style="fill:none;"/><g><path d="M23.89,25.57c2.45-2.55,2.19-5.42-.35-7.86-2.54-2.44-5.42-2.57-7.86-.04l-2.98,3.1,8.21,7.89,2.98-3.1Zm-7.15-6.54c1.64-1.7,3.35-1.85,5.41,.13,2.06,1.98,1.98,3.7,.36,5.39l-1.5,1.56-5.76-5.54,1.48-1.54Z" style="fill:#fdcecd;"/><rect x="26.52" y="12.85" width="1.9" height="8.28" transform="translate(-4.76 19.04) rotate(-35.37)" style="fill:#fdcecd;"/><rect x="22.88" y="10.9" width="1.9" height="1.94" transform="translate(-2.47 16) rotate(-35.4)" style="fill:#fdcecd;"/><path d="M33.94,17.81l-2.09-4.05c-.63-1.22-.34-2.6,.5-3.03,.5-.26,.87-.03,1.08,.38,.22,.42,.24,1.02,.12,1.39l1.74-.89c.02-.3-.06-.93-.42-1.64-.56-1.09-1.55-1.34-2.47-.87-1.31,.68-1.51,2.12-1.17,3.43l-1.07-2.08-1.69,.87,3.79,7.36,1.69-.87Z" style="fill:#fdcecd;"/><path d="M43.75,11.08c-.1,.75-.52,1.65-1.91,2.04-1.26,.36-2.31-.17-2.81-1.57l5.69-1.61c-.01-.17-.08-.53-.16-.82-.63-2.21-2.4-3.42-4.79-2.74-2.24,.64-3.33,2.73-2.62,5.23,.71,2.49,2.73,3.7,5.1,3.03,1.77-.5,2.62-1.61,2.96-2.7l-1.46-.86Zm-3.57-3.23c1.21-.34,2.12,.14,2.61,1.36l-4.09,1.16c-.22-1.33,.35-2.2,1.48-2.52Z" style="fill:#fdcecd;"/><path d="M54.61,10.28l-1.76-.75c-.12,1.2-.67,2.03-1.96,2.1-1.31,.07-2.16-.85-2.25-2.58-.1-1.75,.65-2.76,1.96-2.83,1.27-.07,1.93,.69,2.18,1.87l1.67-.94c-.53-1.54-1.9-2.64-3.97-2.52-2.46,.13-3.91,1.95-3.77,4.53,.14,2.56,1.78,4.21,4.24,4.07,2.07-.11,3.31-1.36,3.67-2.94Z" style="fill:#fdcecd;"/><path d="M56.82,10.87c-.19,1.45,.57,2.54,2.12,2.75,1.2,.16,2.08-.29,2.5-.76l-.37-1.76c-.3,.44-.84,.9-1.48,.81-.56-.07-.95-.35-.83-1.24l.54-4.04,2.51,.33,.2-1.47-2.51-.33,.29-2.19-2.05,.94-.13,.99-1.28-.17-.2,1.47,1.28,.17-.6,4.5Z" style="fill:#fdcecd;"/><rect x="60.42" y="9.44" width="8.28" height="1.9" transform="translate(37.66 69.99) rotate(-74.86)" style="fill:#fdcecd;"/><rect x="65.23" y="3.38" width="1.94" height="1.9" transform="translate(44.69 67.09) rotate(-74.83)" style="fill:#fdcecd;"/><path d="M74.81,14.43c1.07-2.35,.3-4.61-1.9-5.6-2.17-.98-4.37-.08-5.44,2.27-1.06,2.34-.29,4.59,1.87,5.57,2.2,1,4.4,.1,5.46-2.24Zm-1.76-.8c-.79,1.73-1.9,2.12-3.03,1.61-1.11-.51-1.55-1.6-.76-3.33,.79-1.75,1.91-2.14,3.02-1.63,1.13,.51,1.57,1.61,.77,3.36Z" style="fill:#fdcecd;"/><path d="M75.8,20.08l2.81-3.7c.82-1.08,1.75-1.51,2.86-.67,1.02,.77,.86,1.53,.25,2.34l-3.14,4.13,1.53,1.16,3.49-4.59c1.04-1.37,.84-2.73-.45-3.71-1.31-1-2.67-.62-3.7,.24l1.37-1.8-1.52-1.15-5.01,6.59,1.52,1.15Z" style="fill:#fdcecd;"/><path d="M84.45,26.14c-.97-1.11-1-2.44-.68-3.33l-1.63-.06c-.57,1.33-.05,3.02,1.12,4.35,1.15,1.32,2.67,1.82,3.9,.75,.9-.78,1.01-1.79,.15-3.5l-.47-.92c-.52-1.04-.65-1.51-.2-1.91,.42-.37,.98-.2,1.46,.35,.7,.81,.88,1.83,.57,2.87l1.63,.06c.37-1,.19-2.49-.97-3.82-1.25-1.43-2.77-1.75-3.94-.74-1.14,1-.78,2.28-.15,3.47l.52,1.01c.44,.84,.7,1.44,.24,1.85-.45,.39-1.01,.18-1.55-.43Z" style="fill:#fdcecd;"/><path d="M82.3,80.24c-2.43,2.57-2.15,5.43,.41,7.85,2.56,2.42,5.44,2.53,7.86-.02l2.96-3.12-8.27-7.83-2.96,3.12Zm7.2,6.49c-1.62,1.72-3.34,1.87-5.41-.09-2.07-1.96-2.01-3.69-.4-5.39l1.48-1.57,5.8,5.49-1.47,1.56Z" style="fill:#fdcecd;"/><rect x="81.49" y="92.97" width="1.9" height="1.94" transform="translate(-39.36 65.91) rotate(-35.77)" style="fill:#fdcecd;"/><rect x="77.82" y="84.7" width="1.9" height="8.28" transform="translate(-37.06 62.77) rotate(-35.75)" style="fill:#fdcecd;"/><path d="M72.3,88.05l2.11,4.04c.64,1.22,.36,2.59-.48,3.04-.5,.26-.87,.03-1.08-.38-.22-.42-.25-1.02-.13-1.39l-1.73,.91c-.02,.3,.06,.93,.43,1.63,.57,1.08,1.56,1.33,2.48,.85,1.31-.69,1.5-2.13,1.15-3.44l1.09,2.08,1.69-.88-3.84-7.33-1.69,.88Z" style="fill:#fdcecd;"/><path d="M64.02,91.29c-1.76,.51-2.61,1.63-2.95,2.72l1.47,.85c.1-.75,.51-1.65,1.9-2.06,1.26-.37,2.31,.16,2.82,1.55l-5.68,1.65c.01,.17,.08,.53,.17,.82,.64,2.2,2.42,3.4,4.81,2.71,2.24-.65,3.31-2.75,2.58-5.25-.72-2.48-2.75-3.68-5.12-2.99Zm2.11,6.77c-1.21,.35-2.13-.13-2.62-1.34l4.08-1.19c.23,1.33-.33,2.2-1.46,2.53Z" style="fill:#fdcecd;"/><path d="M55.34,92.76c-2.07,.13-3.3,1.38-3.65,2.97l1.77,.74c.11-1.2,.66-2.03,1.95-2.11,1.31-.08,2.16,.84,2.27,2.57,.11,1.75-.63,2.76-1.94,2.84-1.27,.08-1.93-.68-2.19-1.86l-1.66,.96c.54,1.53,1.92,2.62,3.99,2.49,2.46-.15,3.9-1.98,3.74-4.56-.16-2.56-1.81-4.2-4.27-4.04Z" style="fill:#fdcecd;"/><path d="M49.47,95.15c.18-1.45-.59-2.54-2.14-2.74-1.2-.15-2.08,.3-2.5,.78l.38,1.76c.3-.44,.83-.91,1.47-.83,.56,.07,.95,.34,.84,1.24l-.51,4.05-2.51-.32-.18,1.47,2.51,.32-.28,2.19,2.04-.96,.13-1,1.28,.16,.18-1.47-1.28-.16,.57-4.5Z" style="fill:#fdcecd;"/><rect x="37.61" y="94.74" width="8.27" height="1.9" transform="translate(-61.41 111.75) rotate(-75.28)" style="fill:#fdcecd;"/><rect x="39.18" y="100.81" width="1.94" height="1.9" transform="translate(-68.47 114.75) rotate(-75.29)" style="fill:#fdcecd;"/><path d="M36.9,89.44c-2.21-.98-4.4-.06-5.45,2.28-1.05,2.36-.27,4.61,1.94,5.59,2.17,.97,4.37,.05,5.43-2.31,1.05-2.35,.26-4.6-1.91-5.57Zm.13,4.77c-.78,1.75-1.89,2.15-3.01,1.66-1.13-.51-1.58-1.6-.8-3.35,.78-1.74,1.89-2.14,3.02-1.63,1.12,.5,1.56,1.59,.79,3.33Z" style="fill:#fdcecd;"/><path d="M30.45,86.09l-2.78,3.72c-.81,1.09-1.73,1.53-2.85,.69-1.02-.76-.88-1.52-.27-2.34l3.1-4.15-1.54-1.15-3.45,4.61c-1.03,1.37-.82,2.74,.47,3.71,1.32,.99,2.67,.6,3.7-.27l-1.35,1.81,1.52,1.14,4.96-6.63-1.52-1.14Z" style="fill:#fdcecd;"/><path d="M21.75,80.1c.98,1.11,1.02,2.43,.7,3.33l1.63,.05c.56-1.34,.02-3.02-1.15-4.34-1.16-1.31-2.69-1.8-3.91-.71-.89,.79-1,1.79-.12,3.5l.47,.92c.53,1.03,.66,1.51,.21,1.9-.42,.37-.98,.21-1.46-.34-.71-.8-.89-1.82-.59-2.86l-1.63-.05c-.36,1-.17,2.49,1,3.82,1.26,1.42,2.79,1.73,3.94,.71,1.13-1,.76-2.29,.12-3.47l-.53-1.01c-.44-.83-.71-1.44-.25-1.84,.44-.39,1.01-.19,1.55,.42Z" style="fill:#fdcecd;"/><polygon points="13 53.6 .52 51.72 .5 52.12 13.02 54.49 13 53.6" style="fill:#fdcecd;"/><polygon points="92.98 51.51 93 52.4 105.48 54.28 105.5 53.88 92.98 51.51" style="fill:#fdcecd;"/><polygon points="13.38 47.46 1.33 43.68 1.25 44.07 13.26 48.34 13.38 47.46" style="fill:#fdcecd;"/><polygon points="92.62 58.54 104.67 62.32 104.75 61.93 92.74 57.66 92.62 58.54" style="fill:#fdcecd;"/><polygon points="14.7 41.44 3.38 35.87 3.24 36.24 14.45 42.29 14.7 41.44" style="fill:#fdcecd;"/><polygon points="91.3 64.56 102.62 70.13 102.76 69.76 91.55 63.71 91.3 64.56" style="fill:#fdcecd;"/><polygon points="16.93 35.7 6.59 28.45 6.4 28.8 16.55 36.5 16.93 35.7" style="fill:#fdcecd;"/><polygon points="89.07 70.3 99.41 77.55 99.6 77.2 89.45 69.5 89.07 70.3" style="fill:#fdcecd;"/><polygon points="13.56 59.67 .93 59.7 .97 60.1 13.71 60.54 13.56 59.67" style="fill:#fdcecd;"/><polygon points="92.44 46.33 105.07 46.3 105.03 45.9 92.29 45.46 92.44 46.33" style="fill:#fdcecd;"/><polygon points="15.03 65.58 2.55 67.53 2.65 67.91 15.31 66.42 15.03 65.58" style="fill:#fdcecd;"/><polygon points="90.97 40.42 103.45 38.47 103.35 38.09 90.69 39.58 90.97 40.42" style="fill:#fdcecd;"/><polygon points="17.38 71.19 5.34 75.02 5.5 75.38 17.78 71.99 17.38 71.19" style="fill:#fdcecd;"/><polygon points="88.62 34.81 100.66 30.98 100.5 30.62 88.22 34.01 88.62 34.81" style="fill:#fdcecd;"/></g></g></svg>