<?xml version="1.0" encoding="UTF-8"?><svg id="Layer_2" xmlns="http://www.w3.org/2000/svg" viewBox="0 0 106 106"><g id="Layer_2-2"><circle cx="53" cy="53" r="53" style="fill:none;"/><g><rect x="34.25" y="5.2" width="1.92" height="11.39" transform="translate(-1.46 14.58) rotate(-22.93)" style="fill:#fdcecd;"/><path d="M42.66,7.24c1.24-.28,1.73,.32,1.96,1.31l1.15,5.05,1.87-.43-1.28-5.62c-.38-1.67-1.56-2.4-3.13-2.04-1.61,.37-2.19,1.65-2.19,2.99l-.5-2.2-1.86,.42,1.84,8.07,1.86-.42-1.03-4.52c-.3-1.33-.04-2.31,1.32-2.62Z" style="fill:#fdcecd;"/><path d="M55.97,10.67c-.02-1.19-.71-1.93-2.57-2.37l-1.01-.24c-1.13-.27-1.57-.48-1.58-1.08,0-.56,.48-.88,1.21-.89,1.07-.02,1.96,.51,2.56,1.42l1.1-1.21c-.52-.93-1.78-1.76-3.55-1.73-1.9,.03-3.13,.99-3.1,2.53,.02,1.51,1.24,2.07,2.55,2.36l1.11,.25c.92,.21,1.55,.4,1.56,1.01,0,.59-.51,.89-1.33,.91-1.48,.02-2.51-.81-2.99-1.63l-1.1,1.21c.65,1.3,2.28,1.99,4.04,1.96,1.75-.03,3.11-.87,3.09-2.5Z" style="fill:#fdcecd;"/><path d="M60.39,13.87c1.19,.2,2.09-.21,2.53-.67l-.3-1.77c-.31,.43-.87,.87-1.51,.76-.55-.09-.94-.38-.78-1.27l.69-4.02,2.5,.42,.25-1.46-2.5-.42,.37-2.18-2.08,.87-.17,.99-1.27-.22-.25,1.46,1.27,.22-.76,4.47c-.25,1.44,.48,2.56,2.02,2.83Z" style="fill:#fdcecd;"/><path d="M65.52,15.14c1.62,.61,2.83-.32,3.45-1.25l-.22,.57c-.42,1.11,.09,1.74,.92,2.05l1.1,.41,.58-1.53-.49-.19c-.29-.11-.37-.27-.24-.62l1.1-2.91c.72-1.91,.05-3.42-1.88-4.14-1.72-.65-3.26-.21-4.18,.39l.59,1.67c.75-.64,1.79-.94,2.83-.55,1.07,.4,1.22,1.06,.99,1.86l-3.01,.12c-1.44,.02-2.46,.4-2.87,1.5-.42,1.11,.07,2.12,1.35,2.6Zm.47-2.22c.15-.4,.52-.57,1.3-.62l2.33-.14-.31,.83c-.4,1.05-1.46,1.45-2.63,1.01-.65-.25-.85-.63-.69-1.08Z" style="fill:#fdcecd;"/><rect x="70.15" y="89.27" width="1.92" height="11.39" transform="translate(-31.83 35.99) rotate(-23.37)" style="fill:#fdcecd;"/><path d="M63.9,91.54l1.07,4.52c.31,1.32,.06,2.31-1.3,2.63-1.24,.29-1.73-.31-1.97-1.3l-1.19-5.04-1.87,.44,1.32,5.61c.39,1.67,1.58,2.39,3.15,2.02,1.6-.38,2.17-1.67,2.17-3.01l.52,2.2,1.85-.44-1.9-8.06-1.85,.44Z" style="fill:#fdcecd;"/><path d="M53.41,94.36c1.48-.03,2.52,.8,2.99,1.62l1.1-1.21c-.66-1.3-2.29-1.98-4.05-1.94-1.75,.04-3.11,.88-3.08,2.51,.02,1.19,.72,1.92,2.58,2.36l1.01,.23c1.13,.27,1.58,.48,1.59,1.07,.01,.56-.47,.88-1.21,.89-1.07,.02-1.97-.5-2.56-1.41l-1.1,1.21c.53,.92,1.79,1.75,3.56,1.71,1.9-.04,3.12-1,3.09-2.55-.03-1.51-1.25-2.07-2.57-2.34l-1.11-.25c-.92-.2-1.56-.39-1.57-1-.01-.59,.51-.89,1.32-.91Z" style="fill:#fdcecd;"/><path d="M47.92,95c.24-1.44-.49-2.56-2.04-2.82-1.19-.2-2.09,.23-2.53,.69l.31,1.77c.31-.43,.87-.87,1.5-.77,.55,.09,.94,.38,.79,1.27l-.66,4.03-2.5-.41-.24,1.46,2.5,.41-.36,2.18,2.08-.88,.16-.99,1.28,.21,.24-1.46-1.28-.21,.73-4.48Z" style="fill:#fdcecd;"/><path d="M40.77,90.95c-1.63-.6-2.82,.34-3.44,1.27l.21-.58c.41-1.12-.1-1.74-.93-2.05l-1.1-.41-.56,1.53,.5,.18c.29,.11,.37,.26,.25,.62l-1.08,2.92c-.71,1.92-.03,3.42,1.91,4.13,1.72,.63,3.27,.19,4.18-.42l-.6-1.67c-.75,.65-1.78,.96-2.82,.57-1.07-.39-1.23-1.05-1-1.85l3.01-.14c1.44-.03,2.46-.42,2.86-1.52,.41-1.12-.09-2.12-1.37-2.59Zm-.46,2.22c-.15,.4-.52,.57-1.3,.63l-2.32,.16,.31-.83c.39-1.05,1.44-1.46,2.62-1.03,.65,.24,.86,.62,.69,1.07Z" style="fill:#fdcecd;"/><rect x="5.2" y="69.83" width="11.39" height="1.92" transform="translate(-26.72 9.84) rotate(-22.93)" style="fill:#fdcecd;"/><path d="M6.74,67.32l8.07-1.84-.42-1.86-4.52,1.03c-1.33,.3-2.31,.04-2.62-1.32-.28-1.24,.32-1.73,1.31-1.96l5.05-1.15-.43-1.87-5.62,1.28c-1.67,.38-2.4,1.56-2.04,3.13,.37,1.61,1.65,2.19,2.99,2.19l-2.2,.5,.42,1.86Z" style="fill:#fdcecd;"/><path d="M9.46,54.42l.25-1.11c.21-.92,.4-1.55,1.01-1.56,.59,0,.89,.51,.91,1.33,.02,1.48-.81,2.51-1.63,2.99l1.21,1.1c1.3-.65,1.99-2.28,1.96-4.04-.03-1.75-.87-3.12-2.5-3.09-1.19,.02-1.93,.71-2.37,2.57l-.24,1.01c-.27,1.13-.48,1.57-1.08,1.58-.56,0-.88-.48-.89-1.21-.02-1.07,.51-1.96,1.42-2.56l-1.21-1.1c-.93,.53-1.76,1.78-1.73,3.55,.03,1.9,.99,3.13,2.53,3.11,1.51-.03,2.07-1.24,2.36-2.55Z" style="fill:#fdcecd;"/><path d="M4.89,47.89l1.46,.25,.22-1.27,4.47,.76c1.44,.24,2.56-.48,2.83-2.02,.2-1.19-.21-2.09-.67-2.53l-1.77,.3c.43,.31,.87,.87,.76,1.51-.09,.55-.38,.94-1.27,.78l-4.02-.68,.42-2.5-1.46-.25-.42,2.5-2.18-.37,.87,2.08,.99,.17-.22,1.27Z" style="fill:#fdcecd;"/><path d="M9.62,39.76c-.64-.75-.94-1.79-.55-2.83,.4-1.07,1.06-1.22,1.86-.99l.12,3.01c.02,1.44,.4,2.46,1.5,2.87,1.11,.42,2.12-.07,2.6-1.35,.61-1.62-.32-2.83-1.25-3.45l.57,.22c1.11,.42,1.74-.09,2.05-.92l.41-1.1-1.53-.58-.19,.49c-.11,.29-.27,.37-.62,.24l-2.91-1.1c-1.91-.72-3.42-.05-4.14,1.88-.65,1.72-.21,3.26,.39,4.18l1.67-.59Zm3.38-3.07c1.05,.4,1.45,1.46,1.01,2.63-.25,.65-.63,.85-1.08,.69-.4-.15-.57-.52-.62-1.3l-.14-2.33,.83,.31Z" style="fill:#fdcecd;"/><rect x="89.27" y="33.93" width="11.39" height="1.92" transform="translate(-6.05 40.53) rotate(-23.37)" style="fill:#fdcecd;"/><path d="M97.38,44.3l-5.04,1.19,.44,1.87,5.61-1.32c1.67-.39,2.39-1.58,2.02-3.15-.38-1.61-1.67-2.17-3.01-2.17l2.2-.52-.44-1.85-8.06,1.9,.44,1.85,4.52-1.07c1.32-.31,2.31-.06,2.63,1.3,.29,1.24-.31,1.73-1.3,1.97Z" style="fill:#fdcecd;"/><path d="M96.53,51.24l-.25,1.11c-.2,.92-.39,1.56-1,1.57-.59,.01-.89-.51-.91-1.32-.03-1.48,.8-2.52,1.62-2.99l-1.21-1.1c-1.3,.66-1.98,2.29-1.94,4.05,.04,1.75,.88,3.11,2.51,3.08,1.19-.03,1.92-.72,2.36-2.58l.23-1.01c.27-1.13,.48-1.58,1.07-1.59,.56-.01,.88,.47,.89,1.21,.02,1.07-.5,1.97-1.41,2.56l1.21,1.1c.92-.53,1.75-1.79,1.71-3.56-.04-1.9-1-3.12-2.55-3.09-1.51,.03-2.07,1.25-2.34,2.57Z" style="fill:#fdcecd;"/><path d="M101.93,59.22l-.99-.16,.21-1.28-1.46-.24-.21,1.28-4.48-.73c-1.44-.24-2.56,.49-2.82,2.04-.2,1.19,.23,2.09,.69,2.53l1.77-.31c-.43-.31-.87-.87-.77-1.5,.09-.55,.38-.94,1.27-.79l4.03,.66-.41,2.5,1.46,.24,.41-2.5,2.18,.36-.88-2.07Z" style="fill:#fdcecd;"/><path d="M96.48,65.91c.65,.75,.96,1.78,.57,2.82-.39,1.07-1.05,1.23-1.85,1l-.14-3.01c-.03-1.44-.42-2.46-1.52-2.86-1.12-.41-2.12,.09-2.59,1.37-.6,1.63,.34,2.83,1.27,3.44l-.58-.21c-1.12-.41-1.74,.1-2.05,.93l-.41,1.1,1.53,.56,.18-.5c.11-.29,.26-.37,.62-.24l2.92,1.07c1.92,.71,3.42,.03,4.13-1.91,.63-1.72,.19-3.27-.42-4.18l-1.67,.6Zm-3.35,3.1c-1.05-.39-1.46-1.44-1.03-2.62,.24-.65,.62-.86,1.07-.69,.4,.15,.57,.52,.63,1.3l.16,2.32-.83-.31Z" style="fill:#fdcecd;"/><polygon points="20.17 30.14 11.13 21.33 10.88 21.64 19.66 30.87 20.17 30.14" style="fill:#fdcecd;"/><polygon points="85.83 75.86 94.87 84.67 95.12 84.36 86.34 75.13 85.83 75.86" style="fill:#fdcecd;"/><polygon points="24.26 25.18 16.75 15.03 16.46 15.29 23.64 25.81 24.26 25.18" style="fill:#fdcecd;"/><polygon points="81.74 80.82 89.25 90.97 89.54 90.71 82.36 80.19 81.74 80.82" style="fill:#fdcecd;"/><polygon points="29.09 20.93 23.31 9.71 22.97 9.92 28.38 21.46 29.09 20.93" style="fill:#fdcecd;"/><polygon points="76.91 85.07 82.69 96.29 83.03 96.08 77.62 84.54 76.91 85.07" style="fill:#fdcecd;"/><polygon points="20.74 76.65 9.47 82.34 9.68 82.68 21.26 77.36 20.74 76.65" style="fill:#fdcecd;"/><polygon points="85.26 29.35 96.53 23.66 96.32 23.32 84.74 28.64 85.26 29.35" style="fill:#fdcecd;"/><polygon points="24.92 81.49 14.71 88.91 14.97 89.21 25.56 82.12 24.92 81.49" style="fill:#fdcecd;"/><polygon points="81.08 24.51 91.29 17.09 91.03 16.79 80.44 23.88 81.08 24.51" style="fill:#fdcecd;"/><polygon points="20.93 94.56 21.24 94.81 30.55 86.12 29.83 85.61 20.93 94.56" style="fill:#fdcecd;"/><polygon points="84.76 11.19 75.45 19.88 76.17 20.39 85.07 11.44 84.76 11.19" style="fill:#fdcecd;"/></g></g></svg>