<?xml version="1.0" encoding="UTF-8"?><svg id="Layer_2" xmlns="http://www.w3.org/2000/svg" viewBox="0 0 106 106"><g id="Layer_2-2"><circle cx="53" cy="53" r="53" style="fill:none;"/><g><polygon points="32.47 18.4 31.45 17.04 26.54 20.72 24.58 18.11 28.65 15.06 27.63 13.7 23.56 16.75 21.74 14.32 26.66 10.64 25.64 9.28 19.19 14.11 26.02 23.23 32.47 18.4" style="fill:#fdcecd;"/><path d="M44.81,13.37l-2-5.41c-.6-1.61-1.71-2.23-3.2-1.68-1.48,.55-1.85,1.9-1.67,3.23-.62-1.44-1.7-1.98-3.12-1.46-1.47,.54-1.84,1.88-1.67,3.21l-.79-2.12-1.79,.66,2.88,7.77,1.79-.66-1.61-4.35c-.47-1.28-.34-2.29,.71-2.68,1.05-.39,1.7-.01,2.09,1.06l1.8,4.86,1.79-.66-1.61-4.35c-.47-1.28-.34-2.29,.71-2.68s1.7-.01,2.1,1.06l1.8,4.86,1.79-.66Z" style="fill:#fdcecd;"/><path d="M52.85,12.91l1.17-.08-.12-1.63-.53,.04c-.3,.02-.45-.09-.48-.46l-.22-3.1c-.14-2.03-1.38-3.12-3.43-2.98-1.83,.13-3.05,1.17-3.63,2.1l1.23,1.28c.41-.9,1.23-1.6,2.33-1.68,1.14-.08,1.55,.45,1.68,1.28l-2.68,1.37c-1.3,.62-2.07,1.39-1.98,2.56,.08,1.19,.95,1.89,2.31,1.8,1.73-.12,2.43-1.47,2.61-2.57l.04,.61c.08,1.19,.81,1.54,1.69,1.48Zm-3.77-1.04c-.69,.05-1.04-.22-1.07-.69-.03-.42,.24-.73,.93-1.11l2.05-1.1,.06,.88c.08,1.12-.71,1.93-1.97,2.01Z" style="fill:#fdcecd;"/><rect x="52.88" y="8.09" width="8.28" height="1.9" transform="translate(42.9 65.02) rotate(-84.85)" style="fill:#fdcecd;"/><rect x="56.61" y="1.83" width="1.94" height="1.91" transform="translate(49.65 59.88) rotate(-84.85)" style="fill:#fdcecd;"/><rect x="56.26" y="7.23" width="11.39" height="1.9" transform="translate(41.89 67.37) rotate(-78.79)" style="fill:#fdcecd;"/><path d="M69.88,16.9c1.47,.74,2.74,.12,3.6-.91l-1.01,2.02,1.72,.86,3.71-7.39-1.72-.86-2.08,4.14c-.61,1.21-1.44,1.81-2.69,1.18-1.14-.57-1.13-1.35-.67-2.26l2.33-4.63-1.7-.85-2.59,5.15c-.77,1.53-.33,2.84,1.1,3.56Z" style="fill:#fdcecd;"/><path d="M76.39,18.1c-.33,1.41,.48,2.98,1.86,4.09,1.36,1.1,2.95,1.32,3.97,.05,.75-.93,.68-1.94-.46-3.47l-.62-.83c-.69-.93-.9-1.38-.53-1.84,.35-.44,.93-.37,1.5,.09,.83,.67,1.18,1.65,1.06,2.73l1.62-.22c.19-1.05-.25-2.49-1.62-3.6-1.48-1.19-3.04-1.24-4.01-.04-.95,1.18-.37,2.39,.46,3.44l.69,.9c.58,.75,.94,1.3,.56,1.78-.37,.46-.96,.36-1.6-.15-1.15-.93-1.41-2.23-1.25-3.16l-1.62,.22Z" style="fill:#fdcecd;"/><polygon points="73.79 87.45 74.82 88.8 79.71 85.08 81.68 87.68 77.64 90.76 78.67 92.11 82.71 89.03 84.55 91.44 79.66 95.16 80.69 96.51 87.11 91.63 80.21 82.56 73.79 87.45" style="fill:#fdcecd;"/><path d="M71.04,88.95l1.65,4.34c.48,1.27,.36,2.28-.69,2.68-1.05,.4-1.7,.03-2.1-1.04l-1.84-4.85-1.78,.67,1.65,4.34c.48,1.27,.36,2.28-.69,2.68-1.05,.4-1.7,.03-2.1-1.04l-1.84-4.85-1.78,.68,2.04,5.39c.61,1.61,1.73,2.22,3.21,1.66s1.84-1.92,1.64-3.24c.63,1.43,1.71,1.97,3.13,1.43,1.46-.55,1.83-1.89,1.65-3.23l.8,2.11,1.78-.67-2.94-7.74-1.78,.67Z" style="fill:#fdcecd;"/><path d="M57.19,99.58c-1.14,.09-1.55-.44-1.69-1.27l2.67-1.39c1.3-.63,2.05-1.41,1.96-2.58-.09-1.19-.97-1.88-2.32-1.78-1.73,.14-2.42,1.49-2.59,2.59l-.05-.61c-.09-1.19-.82-1.54-1.7-1.47l-1.17,.09,.13,1.63,.53-.04c.3-.02,.45,.08,.48,.46l.25,3.1c.16,2.03,1.41,3.11,3.46,2.95,1.83-.14,3.04-1.2,3.62-2.13l-1.24-1.27c-.41,.9-1.22,1.61-2.32,1.7Zm-1.89-3.45c-.09-1.12,.7-1.93,1.95-2.03,.7-.05,1.04,.21,1.08,.68,.03,.42-.23,.74-.92,1.11l-2.04,1.12-.07-.88Z" style="fill:#fdcecd;"/><rect x="45.19" y="96.04" width="8.28" height="1.9" transform="translate(-51.4 138.14) rotate(-85.26)" style="fill:#fdcecd;"/><rect x="47.84" y="102.29" width="1.94" height="1.9" transform="translate(-58.09 143.42) rotate(-85.29)" style="fill:#fdcecd;"/><rect x="38.66" y="96.92" width="11.39" height="1.9" transform="translate(-60.12 123.01) rotate(-79.15)" style="fill:#fdcecd;"/><path d="M36.36,89.22c-1.48-.73-2.74-.1-3.59,.94l1-2.03-1.72-.85-3.66,7.42,1.72,.85,2.05-4.16c.6-1.22,1.43-1.82,2.68-1.2,1.14,.56,1.14,1.34,.69,2.25l-2.29,4.65,1.71,.84,2.55-5.17c.76-1.54,.3-2.84-1.13-3.55Z" style="fill:#fdcecd;"/><path d="M29.87,88.07c.32-1.42-.5-2.98-1.89-4.08-1.37-1.09-2.96-1.3-3.97-.02-.74,.93-.67,1.94,.49,3.46l.63,.82c.7,.92,.91,1.37,.54,1.84-.35,.44-.92,.37-1.5-.08-.84-.67-1.19-1.64-1.08-2.72l-1.62,.24c-.18,1.05,.26,2.49,1.65,3.58,1.49,1.18,3.04,1.22,4.01,0,.94-1.19,.35-2.39-.48-3.44l-.7-.9c-.58-.74-.95-1.29-.57-1.77,.37-.47,.96-.37,1.6,.14,1.16,.92,1.43,2.22,1.27,3.16l1.62-.24Z" style="fill:#fdcecd;"/><polygon points="13 53.6 .52 51.72 .5 52.12 13.02 54.49 13 53.6" style="fill:#fdcecd;"/><polygon points="92.98 51.51 93 52.4 105.48 54.28 105.5 53.88 92.98 51.51" style="fill:#fdcecd;"/><polygon points="13.38 47.46 1.33 43.68 1.25 44.07 13.26 48.34 13.38 47.46" style="fill:#fdcecd;"/><polygon points="92.62 58.54 104.67 62.32 104.75 61.93 92.74 57.66 92.62 58.54" style="fill:#fdcecd;"/><polygon points="14.7 41.44 3.38 35.87 3.24 36.24 14.45 42.29 14.7 41.44" style="fill:#fdcecd;"/><polygon points="91.3 64.56 102.62 70.13 102.76 69.76 91.55 63.71 91.3 64.56" style="fill:#fdcecd;"/><polygon points="16.93 35.7 6.59 28.45 6.4 28.8 16.55 36.5 16.93 35.7" style="fill:#fdcecd;"/><polygon points="89.07 70.3 99.41 77.55 99.6 77.2 89.45 69.5 89.07 70.3" style="fill:#fdcecd;"/><polygon points="20.28 29.99 11.28 21.13 11.04 21.44 19.77 30.71 20.28 29.99" style="fill:#fdcecd;"/><polygon points="85.72 76.01 94.72 84.87 94.96 84.56 86.23 75.29 85.72 76.01" style="fill:#fdcecd;"/><polygon points="13.56 59.67 .93 59.7 .97 60.1 13.71 60.54 13.56 59.67" style="fill:#fdcecd;"/><polygon points="92.44 46.33 105.07 46.3 105.03 45.9 92.29 45.46 92.44 46.33" style="fill:#fdcecd;"/><polygon points="15.03 65.58 2.55 67.53 2.65 67.91 15.31 66.42 15.03 65.58" style="fill:#fdcecd;"/><polygon points="90.97 40.42 103.45 38.47 103.35 38.09 90.69 39.58 90.97 40.42" style="fill:#fdcecd;"/><polygon points="17.38 71.19 5.34 75.02 5.5 75.38 17.78 71.99 17.38 71.19" style="fill:#fdcecd;"/><polygon points="88.62 34.81 100.66 30.98 100.5 30.62 88.22 34.01 88.62 34.81" style="fill:#fdcecd;"/><polygon points="9.66 82.62 9.87 82.96 21.42 77.57 20.89 76.85 9.66 82.62" style="fill:#fdcecd;"/><polygon points="85.11 29.15 96.34 23.38 96.13 23.04 84.58 28.43 85.11 29.15" style="fill:#fdcecd;"/></g></g></svg>