<?xml version="1.0" encoding="UTF-8"?><svg id="Layer_2" xmlns="http://www.w3.org/2000/svg" viewBox="0 0 38 38"><g id="Layer_2-2"><g><path d="M19,3.98C10.71,3.98,3.98,10.7,3.98,18.99c0,7.5,5.49,13.71,12.67,14.83v-10.49h-3.81v-4.34h3.81v-3.31c0-3.76,2.24-5.84,5.67-5.84,1.64,0,3.36,.29,3.36,.29v3.7h-1.89c-1.87,0-2.45,1.16-2.45,2.35v2.82h4.16l-.67,4.34h-3.5v10.49c7.18-1.13,12.67-7.34,12.67-14.83,0-8.29-6.72-15.02-15.02-15.02Z" style="fill:#e1ddfb;"/><path d="M19,0C8.52,0,0,8.52,0,19s8.52,19,19,19,19-8.52,19-19S29.48,0,19,0Zm0,37.02C9.05,37.02,.98,28.95,.98,19S9.05,.98,19,.98s18.02,8.07,18.02,18.02-8.07,18.02-18.02,18.02Z" style="fill:#e1ddfb;"/></g></g></svg>